<?xml version="1.0" encoding="utf-8"?>
<!-- Generator: Adobe Illustrator 27.2.0, SVG Export Plug-In . SVG Version: 6.00 Build 0)  -->
<svg version="1.1" id="Layer_1" xmlns="http://www.w3.org/2000/svg" xmlns:xlink="http://www.w3.org/1999/xlink" x="0px" y="0px"
	 viewBox="0 0 1980.7 321.4" style="enable-background:new 0 0 1980.7 321.4;" xml:space="preserve">
<style type="text/css">
	.st0{fill:#D80C15;}
</style>
<g>
	<rect x="8.4" y="15" class="st0" width="1963.6" height="295.8"/>
	<g>
		<path class="st0" d="M1979.3,304.2c-0.1,8.4,1.1,5.4,1.4,6.7C1980.4,296.8,1979,304.6,1979.3,304.2z"/>
		<polygon class="st0" points="1976.5,165.5 1977,167.9 1975.8,147.5 		"/>
		<path class="st0" d="M1976.5,35.7c-2.1,12.3,0.3,47-0.4,70.1l-0.5,3.8l1.7,10.4C1977.1,92,1975.9,55.5,1976.5,35.7z"/>
		<path class="st0" d="M1934.7,3.2c3.3,1.1-11.5,0.9,12.4,0.3c-1.2-0.1-1.5-0.2-2.2-0.3C1942.7,3.3,1939.8,3.3,1934.7,3.2z"/>
		<path class="st0" d="M1944.9,3.3C1955.4,3.2,1938,2.4,1944.9,3.3L1944.9,3.3z"/>
		<path class="st0" d="M1896.3,3.9l13.9-1c-2.9-0.6-15.2-0.8-10.6-1.2C1885.3,2.2,1888.2,2.8,1896.3,3.9z"/>
		<path class="st0" d="M1883.2,5.9l7.2-0.4C1889.1,5.2,1887.2,5.2,1883.2,5.9z"/>
		<path class="st0" d="M1905.6,4.7l-15.2,0.9c2,0.4,2.2,1.4,7-0.3C1896.1,6,1899.1,5.2,1905.6,4.7z"/>
		<path class="st0" d="M1914.2,5.1c7.8,0.6,17.8,1,3.9,1.9C1944.6,6.6,1940.7,4.7,1914.2,5.1z"/>
		<path class="st0" d="M1974.3,28.9l-0.6,13.7l0.7,11.7c-0.2-2.9,0-9.4,0.1-15.1c0.1-2.8,0.1-5.5,0.1-7.3c0-1,0-1.6-0.1-2.2
			C1974.4,29.1,1974.4,28.8,1974.3,28.9z"/>
		<path class="st0" d="M1810,2.5c-0.9,0.6,4.7,1.6,5.7,2.3l10.2-0.7C1820.7,3.7,1810.7,3.3,1810,2.5z"/>
		<path class="st0" d="M1815.7,4.8l-15.3,1C1814.1,5.9,1816.6,5.4,1815.7,4.8z"/>
		<polygon class="st0" points="1880.7,9 1905.9,6.9 1875.9,9 		"/>
		<polygon class="st0" points="1751.5,2.4 1760.2,1 1744.7,3.1 		"/>
		<path class="st0" d="M1712.7,2.6c6.4-1.1-8.8-1.9-2-2.6c-10.5,0.2-19.5,1.2-27.6,2.1C1691.7,1.6,1700.9,1.7,1712.7,2.6z"/>
		<path class="st0" d="M1669.5,3.3c4.3-0.3,8.8-0.8,13.6-1.3C1678.5,2.3,1674,2.7,1669.5,3.3z"/>
		<path class="st0" d="M1774.3,5.5c-1.2-0.4-3.5-1.3-12.1-1.7l6,1.7C1770.1,5.5,1772.2,5.5,1774.3,5.5z"/>
		<path class="st0" d="M1768.5,5.5l-0.2-0.1c-6.5,0-11.1-0.1-13-0.1C1756.9,5.4,1760.9,5.5,1768.5,5.5z"/>
		<path class="st0" d="M1775.8,5.5c-0.6,0-1,0-1.5,0C1774.9,5.7,1775.2,5.7,1775.8,5.5z"/>
		<path class="st0" d="M1840.6,7.5c-9,0.9-27.8,1.9-9.6,3.3C1837.4,9.7,1827,8.9,1840.6,7.5z"/>
		<path class="st0" d="M1783.3,7.6l16.3,0.4c-0.3-0.4-3.3-1.1,1.2-1.5L1783.3,7.6z"/>
		<polygon class="st0" points="1775.3,8.1 1783.3,7.6 1777.3,7.5 		"/>
		<path class="st0" d="M1697.3,4.9c-7,0.7-14.7,0.8-23.4,0.9c9.3,0.3,18.9,0.5,28.1,0.5C1703.3,5.8,1707.3,4.8,1697.3,4.9z"/>
		<path class="st0" d="M1731.9,5.4c-0.5,0-1.1,0.1-1.6,0.1C1731.3,5.6,1732.1,5.6,1731.9,5.4z"/>
		<path class="st0" d="M1588.5,5.8c0.5,0.1,0.9,0.2,1.4,0.3c0.1-0.1,0.2-0.2,0.3-0.3L1588.5,5.8z"/>
		<path class="st0" d="M1703.6,6.6c7,0.3,11.2-0.1,15.2-0.6c-5.2,0.2-10.8,0.3-16.7,0.3C1701.4,6.5,1701.3,6.7,1703.6,6.6z"/>
		<path class="st0" d="M1645.6,4.1c3.6,0.3,7.8,0.6,12.1,0.9C1654.2,4.5,1646.9,3.7,1645.6,4.1z"/>
		<path class="st0" d="M1728,5c0.4,0,0.7,0,1-0.1C1726.7,4.6,1727,4.7,1728,5z"/>
		<path class="st0" d="M1728,5c-3.6,0.2-6.4,0.7-9.3,1c4.3-0.1,8.2-0.3,11.6-0.6C1729.5,5.3,1728.6,5.1,1728,5z"/>
		<path class="st0" d="M1562.6,16.5c1.2-1.5,19.6-3,35.5-1.3c15.6-1.2,5.4-6.2-8.2-9.1c-0.5,0.7-0.5,1.3-16.6,2.2
			c5.6,0.8,35.7,2,22.1,3.4c-21.3,0.8-17.4-0.5-27.8-1.4c8.8,1.9-27.1,2.8-22.5,5.6l18.7-1C1564.2,15.4,1557.4,16.1,1562.6,16.5z"/>
		<path class="st0" d="M1620.5,6.2l6.6-0.2c-7.5-0.3-12.9-0.9-22.9-2.1c-11,0.8-13.3,1.3-14,1.8l32.6,0.2L1620.5,6.2z"/>
		<path class="st0" d="M1656.8,6c-5.2,1.7-21,2.4-11.3,4.2c19.4-0.1,13.6-1.4,25.2-2.1c-31.3,0.4,9-0.9-13.6-1.9
			c6.2-0.3,11.7-0.4,16.9-0.4c-5.6-0.2-11.1-0.5-16.2-0.8c0.3,0,0.5,0.1,0.7,0.1l0.1,0c0,0,0,0,0,0c1.3,0.2,1.8,0.3,0.3,0.2
			c-0.1,0-0.5,0-0.7,0C1658,5.6,1657.4,5.8,1656.8,6c-9.1-0.4-1.4-0.4,1.4-0.6c0.1-0.1,0.4-0.2,0.4-0.2c0,0-0.1,0-0.1,0L1627.1,6
			C1633.7,6.3,1642,6.2,1656.8,6z"/>
		<path class="st0" d="M1814.2,14.5c-1-0.1-0.9-0.3-1-0.4C1811.2,14.3,1810.4,14.4,1814.2,14.5z"/>
		<path class="st0" d="M1801.3,13.4c2.3-0.2,4.2-0.9,11.6-0.7c6.4,0.5,0,0.8,0.3,1.4c4.5-0.4,15.6-1.2,1.6-2l-2.2,0.2
			c-12.6-0.6-28.9-2.7-26.7-2.9C1789.7,10.9,1792.9,12,1801.3,13.4z"/>
		<path class="st0" d="M1728.1,10.2L1702,11l13.3,1.5l-0.7-0.9C1729.5,11.9,1726.3,10.8,1728.1,10.2z"/>
		<polygon class="st0" points="1585.5,4.9 1588.9,3.2 1573.8,5.7 		"/>
		<polygon class="st0" points="1551.5,5.2 1552.8,3.6 1543.8,4.5 		"/>
		<path class="st0" d="M153.6,301.6l7.7-0.4C157.6,301.3,155.3,301.5,153.6,301.6z"/>
		<path class="st0" d="M98,301.5l-1.4,0.8C99.2,301.8,100.2,301.5,98,301.5z"/>
		<path class="st0" d="M717.6,5.3c-11.2-1.4-23.7-3.7-22.3-1.9l3.4,1.7C706.5,4.8,712.5,5,717.6,5.3z"/>
		<path class="st0" d="M146.5,15.4c1.1,0.2,2.2,0.3,3.3,0.5c2.7-0.6,5.3-1.1,7.6-1.6C154.1,14.7,150.4,15,146.5,15.4z"/>
		<path class="st0" d="M138.6,22.4l-14.7-1.1C127.2,21.7,131.9,22.1,138.6,22.4z"/>
		<path class="st0" d="M457.1,299.8l9-1.7C452.1,298.1,458.2,299,457.1,299.8z"/>
		<path class="st0" d="M1203.8,5.8c-9.7-0.7-17.3-0.9-24.1-1C1191.3,5.7,1200.7,7.2,1203.8,5.8z"/>
		<path class="st0" d="M131.7,319.6c4.7-0.3,6.7-0.7,6.6-1C133.4,318.8,130.7,319.1,131.7,319.6z"/>
		<path class="st0" d="M1151.8,4.8c1.7,0.2,3.4,0.3,5.1,0.4c7.1-0.3,14.2-0.5,22.8-0.4C1171.1,4,1161.3,3.6,1151.8,4.8z"/>
		<path class="st0" d="M1558.1,301.2c0.8,0.1,1.8,0.1,2.5,0.2C1560.8,301.2,1559.7,301.2,1558.1,301.2z"/>
		<path class="st0" d="M1878.8,318.3c-3.2,0.1-8.3,0.1-13.2,0.1C1868,318.5,1872,318.5,1878.8,318.3z"/>
		<path class="st0" d="M1414.9,4.4C1422.1,4.3,1416,4.2,1414.9,4.4L1414.9,4.4z"/>
		<path class="st0" d="M1449.9,11.1c-1.5,0.2-2.7,0.4-2.9,0.8C1447.6,11.5,1448.6,11.3,1449.9,11.1z"/>
		<path class="st0" d="M1080.1,15.3c-0.2,0-0.4,0-0.6,0C1081.6,15.6,1081.2,15.5,1080.1,15.3z"/>
		<path class="st0" d="M1425.7,5.2c-2.7-0.2-5.8-0.4-9.2-0.5C1418,4.8,1420.8,5,1425.7,5.2z"/>
		<path class="st0" d="M1424.3,4.4c2.5,0.1,4.4,0.1,6.3,0.2C1431.5,4.3,1430.7,4.1,1424.3,4.4z"/>
		<path class="st0" d="M1404.9,4.5c4.1,0,8,0.1,11.7,0.2c-1.4-0.1-2-0.2-1.6-0.3C1412.8,4.4,1409.8,4.5,1404.9,4.5z"/>
		<path class="st0" d="M968.2,305.7c0.5,0.1,1,0.1,1.5,0.2C977,305.2,973.8,305.3,968.2,305.7z"/>
		<path class="st0" d="M530.2,22.9c0.3,0,0.5-0.1,0.8-0.1c-0.3,0-0.8,0-1.1-0.1L530.2,22.9z"/>
		<path class="st0" d="M504.3,24.1c11-2.1,17.3-1.8,25.6-1.4l-8.6-4.9L504.3,24.1z"/>
		<path class="st0" d="M286.6,301.1l-18.2-1.5c21.9-2.5,37.8-1.6,20.7-3.8c-2.6,5.3-70.6,0.5-73.1,5.8l-12-1.1
			c3.4,0.1,4-0.3,7.4-0.2c-23.3-2.5-17.3,3.8-47.3,3.1c-10.5-0.4-17.8-1.2-10.6-1.8l-23.3,1.3c-6.8-0.1-5.1-1,1.6-0.9l-35.5,0.4
			l0.3-0.2c-5.1,0.8-16.6,2.1-22.2,2.7c-9-0.8,4.5-0.6,2.2-1.2L57,305c-8-1.4,8.3-2.7,21.9-2.5c-18.4-5.3-16.3,1.3-56-1.8l18.6-0.7
			c-4.5-1.1-9.4-1.7-14.8-2c-1.4-0.1-2.8-0.1-4.2-0.2c-0.7,0-1.4-0.1-2.2-0.1l-0.3,0c0,0,0,0-0.1,0l-0.1,0l-0.1,0
			c-0.3-0.1-0.6-0.2-0.8-0.4c0.1-0.4,0.2-0.7,0.3-1c0.1-0.1,0.1-0.3,0.2-0.3l0.1-0.1l0.1-1.2c0-0.8,0.1-1.7,0.1-2.5
			c-0.1,0.6-0.2,1.6-0.3,2.8c0,0.2,0,0.3,0,0.5l0,0.2l0,0.1c0,0,0,0,0,0l-0.1,0.1c-0.1,0.1-0.1,0.1-0.2,0.2c-0.3,0.4-0.6,1-0.9,2.1
			c0.1,0.4,0.4,0.7,0.8,1.1c0.2,0.2,0.4,0.4,0.6,0.6c0.1,0.1,0.2,0.2,0.3,0.3c0,0,0.1,0.1,0.1,0.1c0.1,0,0.3,0.1,0.4,0.1
			c1,0.4,1.2,0.7,0.4,1c-0.2,0.1-0.5,0.1-0.8,0.2c-0.1,0.1-0.3,0.1-0.5,0.2c-0.4,0.1-1,0.2-1.7,0.4c-0.8-0.1-1.6-0.2-2.5-0.3
			c0-1.4,0-2.8,0-4.5c0-0.4-0.1-0.9-0.1-1.3l0-0.4l0-0.8c0-0.6,0-1.1-0.1-1.7c-0.1-2.3-0.2-4.8-0.3-7.3c1.4-0.1,1.1-14.7,1-33
			l1.9,1.2C17,234.4,16,236,15.2,224.3c0.2-22,1.7-26.6,2.9-31.8c0.3-35.3-2.4,24.4-2.7-17.4c0.7-29.3,0-49.9-1.2-85
			c0.7-20.5,1.2,3.6,1.7-3.8l-1.5-18.2c0-4.5,0.5-3,0.7-2.3c-0.6-15.3-1.9-1.3-2.4-25.4c-0.5-1.4-0.6-4.6-0.5-9c0-0.5,0-1,0-1.6
			c0-0.4,0-0.8,0.1-1.2c0-0.8,0.1-1.7,0.2-2.6c0.1-1.7,0.3-3.5,0.4-5.3c2,0.2,4.1,0.5,6.2,0.8l0.7,0.1l0.2,0l0.3,0l0.7,0
			c0.9,0.1,1.8,0.1,2.7,0.2c1.8,0.1,3.6,0.2,5.4,0.2c7.2,0.3,14.5,0.2,20.9-0.7c5.7,0.7-2.7,1.5-1,2.5c31.5-2,27-1.5,52.9-4.2
			l22.1,1.6c-16.2-1.9,4.5-4.1,22.6-5.9c-5.7-0.9-10.7-1.7-14-2.1l28.9-1.3c3.5,0.4,0.6,1.3-4.2,2.3c2-0.2,3.8-0.4,5.3-0.6
			c10.3,0.9,5,2.4-2.4,3.8c-3.5-0.5-7-1-10.4-1.5c-7.1,1.5-13.8,3.2-12.3,4.7c1.9-0.3,5.5-0.5,9.5-0.7c-1.9,0.4-3.1,0.8-2.2,1
			c1,0.3,4-0.3,8.7-0.9l6.6,2.8l1.6-1.1l37.9,1.7c27.1-2.8,50.7-6.9,93.6-8.1c-10.7,2-2.3,3.3-2.9,5.7c-11.7-2.6-33.3,1.1-55.6,0.6
			c11.6,0.3,9.1,1.4,6.1,1.8l39.7-2.3c-0.9,2,8.4,1.5,18.8,2.3c-7.8-3.9,29.6-2.6,45.8-3.8c1,1.3-2.9,2.6-22.6,2.3
			c21.8,2.9,28.1-4.6,49.5-2.1c-4.8,0-7.4-0.2-9.3,0.5c11.3-1.2,38.8-0.2,32.3,0.9l-4.8,0c32,0.5,97.4,0,102.1-3.3
			c0.3,0.4-4.2,4-6.1,4.7l57.1-11.2c-5,2.8,14.3,9.6-12.3,11.2c7.6,0.4,17,0.9,33.1-0.1c-5.2-0.4-12.9-4.1-5.8-4.4
			c19.5,3.2,13.5,1.7,37.5,4.4c-7.8-0.6,0.9-5.1,13.2-4.9c-1.9,0.7,1,4.4-3.5,4.9l30.6-4.4c-7.6,0.8-1.3,3.7,5.5,5
			c-3.2-0.9,26.5,0.1,34.6-0.4l-13-1c34.6,0.7,34.2-6.2,68.5-5.9c-4.2,0.9-10.3,5.6,7.2,6.1c8-2.2,35.4-10.8,65.8-12.5l5.8,1.3
			l23.3-1.5c-14.5,3.4-55.2,10.5-77.4,13.2c12.9,1,3.6,1.5,23,1.4c6.8,1.2-10.6,1.8-16.3,1.9l45.1,0.8c-2-2.6,34.5-2.6,32.8-4.8
			l-49,2.7c-2-2.6,28.3-7.4,60.3-7c8.1,1-6.1,4.7-5.4,5.5c4.1-0.9,30.3-1.7,33.3-1.1l-13.6,1.4c17.8,1,29-3.5,50.4-1
			c7.4,0.2,22,3.4,23.3,1.8c-12-3-14.4-12.2-6.4-14.5c2.6,0.2,38.8,2.9,47.2,4.3c12.2,2.3-18.2,5.6-7.9,7.6c0.4-0.7,7.2-1.6,10-1.9
			c7.8,0.6-3.2,2.2,13.6,1.9c2.8-2.7,34.3,0.2,8-2.2c16.5-0.8,17.5,0.5,36.9,0.4c-6.2-1.7,17.4-5.8,33.9-6.6c-1,0.7,2.7,1.6,4.5,2
			c33.8,0.2,51.9,1.4,83.4,1.5c2.9,0.6,18.1,1.4,11.6,2.6c4.5-0.5,8.7-1.4,18.4-1.4c18.8,2.3-21.7,0.4-7.3,3.1
			c1.2-1.5,25.1-2.1,39-3.1c-4.3-2.4-32-0.5-45.8,0.5c-0.1-3.3,24.1-6.7,57-8.3c26.2-0.8,11.3,2.1,15.9,1.7
			c49.1,0.6,41.9-5.7,82.7-3.4c16.2,2.1,0.7,4.2,4.3,5.7c-21.3,0.8-32.7-1.3-47.2-1.2l17.8,1c-6.8,0.7-21,1.2-28.8,0.6
			c13.6,1.9,83,0.4,120.9,2.1c6.7-0.7,18.4-1.4,12.9-2.3l-12,0.3c-11-1.7,22.6-2.3,7.4-3.1c16.1-1.2,34.1-3.1,56.8-2.1l4.3,2.4
			c-0.5-0.7-14.8-1.4-21.2-0.7c9.4-1.1,34.7,3.2,45.1,0.1l-15.9-1.7c16.2-1.2,36.1-3.7,56.2-3c-9.1-2.4-4.6,0.3-18.9-2.5
			c12.4,3.4-51.4-0.1-31.5,3.5c-14.6-3.2-25.3-1.4-44.5-4.1c0.6,0.8,6.8,1.5-10.1,1.1c-0.8,0.2-2.6,0.5-3.7,0.7
			c-0.5,0-0.7,0-1.1-0.1c0.3,0,0.6,0.1,0.9,0.1c-0.7,0.1-0.8,0.1,0.3,0c4,0.3,7.3,0.8,8.6,1.2c-8.4,1.8-35.2,1.8-44.2,2.7
			c-10-0.4,4.2-0.9-1.3-1.7l-13.5,1.4c-1.3-1.8-26.6-2.9-3-3.9l-21.2-0.1c-12.5-1-29.7-1.4-40.2-0.6c-10-0.4-25.3,1.9-16.6,0.6
			l-33.3,1.1l-0.3-0.4c-32.8-0.2-67.5,2.9-105.1-0.3c-11,0.4-22.5,1-40.9,0.5l-3.6-1.5c-14.2,0.5-42.6-1.5-48.7,0.1
			c-15.3-4.1-68.8-0.9-93.8-1.6l-0.9,2C951.8,4.4,935.3,5,914,5.8l1.3,1.7C897,9,868.1,6.3,839,6.5c2-0.7,9.3-0.5,14.6-0.1
			c-34.7-3.9-73.3,2.9-104.8,0c-7.8,0.6-13.5,0.4-19,0c0.7,0,1.4,0,1.9-0.1c-0.8,0-2,0-3.2,0c-3.5-0.3-7-0.7-10.9-0.9
			c3.3,0.4,6.4,0.8,9.2,0.9c-6.1,0-15.2,0.3-24.2,0.7l-3.8-1.9c-0.7,0-1.3,0-2.1,0.1c-8.8-0.7-7.1,0.9-2.4,2.3
			c-4.5,0.3-8.7,0.7-11.9,1.1c-7.2-3-23.6,1-33.4-2.2c-6.1,1.6-45.2,1.2-50,4.5c-0.3-0.4-3-0.6,1.9-0.7c-10-0.4-20.1-0.8-29.1,0.2
			L567.5,8l-21.9,3.2c-13.3-1.5-18.8-2.3-5.6-4.1c-31.9,2.8-25.9,1.1-53,3.9l1.3-1.5c-9.7,0.1-25.2,2.1-31.1,0.9
			c-21.7-2.9-107.3-0.4-163-3.1c10.8,4.5-25.9-2-28.1,1.5c-3.2-1.1-11-1.7-2-2.6c-28.4,1.1-42.7-1.7-62.3,1.3
			c-3.3-1.1,6.1-1.6,3.2-2.2c-2.3,0.2-9,0.9-12,0.3c-2.9-0.6,4.2-0.9,8.7-1.4c-29,0.2-32,3.5-34.1,6.6c-14.7-1.5-22.1-1.3-32.7,0.8
			c-5.1-1-13.7-2.1,4.4-2.4c-10.1-0.1-62-1.5-63,1C73.1,9.2,62.1,9.7,59.4,10C48.1,9.9,41.9,9.8,35.7,9.8c-3.1,0-6.1,0-9.8,0
			c-4.4,0-9.6,0.1-16.2,0.1l8.4,0.4c-4,1.1-7.7,1.5-12.1,1.5c0.1,5.3-0.1,11-0.2,18c-0.1,5.7-0.3,12.1-0.2,19.7l-0.2-0.7
			C3.6,102.5,6.1,72,4.2,124.9l1.4-2.9C8.7,127,3.8,169,5,199.7l0.8-11.1c1.1,16.8-4.2,46.9-4.6,63.8c-0.3,3.7-0.4-5.8-0.6-10.9
			c-1.8,44.1,1.9,5.7,2.3,38.6c-1,6.1-2.6-7.8-2.8,14.3c0,0.4,0,0.8-0.1,1.2c0,0.7,0,1.6,0,2.4c0,1.9,0,4,0,6.4
			c0,4.8,0.1,10.6,0.3,16.9c3.5-0.1,7.3-0.3,11.3-0.4c1.9-0.1,3.9-0.2,6-0.2c0.9,0,1.9-0.1,2.8-0.1c0.6,0,1.2-0.1,1.9-0.1
			c5.1-0.3,10.4-0.7,15.9-0.9c10.8-0.5,21.8-0.6,30.3,0.3c-5.1-1-10.2-2,1.5-2.8c18-0.4,48.7,3.8,65,0.6c2.3,0.3,3.2,0.5,3.3,0.8
			c13.8-0.8,44.8-1.4,53.1-3.1c12.7,6.5,85.7-3.1,85.4,2.8l42.4-0.3l-1.1,0.6c27.1,0.4,36.7-1,46.2-2.5c6.3,0.4,1.7,1,1.2,1.3
			c39.6,1.2,43.5,0.9,76.7-2l3.5,1.9c9-1.1,57.2,3,96.1,0.8c-0.4,0.2-1.2,0.6-4.3,0.9c43.7-2.3,104.6,5.4,120.6-1.7l28.8-1.7
			c-37.3-0.5,5.6-3.1-9.8-4.2c14.7-0.4,37.9,2.1,19.9,2.5l-2.8-0.4c-6.6,3.7,46.4,1.3,45.3,3.8c73.4-0.2,144.9,1.8,213.7,2l-7.9-2.9
			l24,0.2c6.3,0.7,8.4,2.2-8.7,2.1c9,1.6,28.7-1.4,29.2-2c33.5,1.2-13.1,3.3-2.8,3.4l14-0.2l-3.1-0.3c11.3-1.2,12.3-2.4,32.9-2.3
			c13,0.6,6.7,1.8,11.8,1.9c0,0.2,1.7,0.3,7.9,0.1l30.2,0.2l-12.1-2.3c13.4-1.1,28.4,0.1,14.5-2.4c20.5,3.9,112.7,1.4,125.3,2.6
			c18.8-1.6,37.3-1.6,60.2-1.4c-5.7-0.5-9.1-3,10.7-2.7c-7.2,5.2,36.2,2.3,52.2,6c-14.3-2.5,56.2-0.6,33.8-4.2
			c16.5,0.4,1,2,13.5,3.2c39.3-2,86.6,1.3,135.1,0.6c0.8-0.7-7.4-1.7,3-2.8l25.6,3.4c9.6-0.3,8.8-4,26.4-1.6
			c-2.5-0.6-6.2-1.4,0.3-1.7c95.1,3.3,194.4-2.7,291,3.5c-13.1-1.3-4.4-1.5,5.6-1.5c-6.5-0.3,0.1-1.7-1.1-2.6l40.4,2.6
			c7.4-2.6,43.4-0.2,47.6-2.6l-12.8,0.4c17-2.9-23.8-6.5-21.3-10.2c-19.1,3.3-50.3-4.9-81.6-0.2c-6.9-0.8,5.9-1.2,2.2-2.1
			c-7.9,1.6-17.5,1.9-35.3,1.2l2-0.4c-49.9,0.4-71.3-1.2-127.3-2.2l4.1,1.8c-12-0.2-14.6-0.8-20.2-1.3c-13.8,2.8,33.8,0.2,21.2,3.2
			c-16-3.8-84.9-0.1-95.7-4.3c-18.5,0,5.4,2.1-13.1,2.1l-4.9-1.2l-4.7,1.5c-12.1-0.2-18.3-1.7-18.7-2.7c2.9,0.1,8.4-0.3,11.5-0.4
			c-15.7-1.4-44.4,0.5-49.8,0l17.8,0.7c-50.5,1.1-112.3-0.4-161.1,1.9l3.7,0.9c-37.3,1.6-29.9-1-70.8-0.2l1.5-0.2
			c-8.2,0.9-19.1,1.3-30.3,1.2c10.3-1-19.5-2-5.9-3.1c-40.4,1.7-20,1.4-46.7,4.6l-6.2-1.4c-9.1,1.3-9.9,2-30.3,2.4
			c16.8-1.2-13.1-2.2,5.7-3.8c-42.9-3.2-63.7,3.2-83.4-1.4c-19.7,4,37.1,2.2,26.1,3.1c9.2,1.3-16.3,3-29.7,2.6
			c-13.7-0.1-23.3-5.1-57.8-5c3.4,0,3.7-0.3,7.1-0.3c-12.9-1-25.3,1.4-41.1-0.3c-8.9,2.4-20.6-0.1-23.1,2.9l31.6-0.7
			c-17.9,0.8-34.7,4.4-64.3,2.7c2.3-0.6,11.1-1.4,17.1-1.9c-8.6-0.9-16.6,0.6-25.6-0.3c2.6-3.1,38.4-0.7,57.6-3
			c-9.3-1.3-36.3,2.2-26.7-1.1c-13.9,4.3-34-0.5-57.3,2.7l1.5-1.8c-3.7,0.3-11.4,1.2-18.2,1.1l12.3-2.4c-18.9,2-36.4-1.8-54.6-0.7
			c38-0.1,8.5,2.2,24.6,3.6c-46.8,2.5-26.9-4.8-79.4-3.9c7.1-0.3,26.6,1.1,15.5,2c-10-0.4-23.2-1.1-29.3-2.1
			c-34.7,0.4,5.3,1.9-9.5,3c-11.8-2.3-17.1,0.9-32.3,1.6l-0.1-1.9c-39.6-1.2-10.5,3.9-46.1,2.5l15.1-2.6l-18.6,0.7l3.8-2.1
			c-20.2,1.6-26.5,1.2-46.3,0.6c4.6,1.3-2.6,3.4-20.1,3.5c-12-1.1,6.7-1.8-18.2-1.5c5.6-1.2,11.8-2.7,22.6-0.9
			c1.1-0.6,5.5-1.2,6.7-1.8c-12.9-1.3-32.4-0.3-41.4-0.3c3.5,0.1,7.6,0.2,9.7,0.4l-36,2.6c-5.7-0.7-1.2-1.3,3.3-1.8
			c-7.3,0.2-12.3,1.1-23.1,1.2c2.8-1.5,2.1-3.1,17.3-3.8l-34.3,1.7c-2.3-0.7-17.6-1.8-13.2-2.4c-19-0.9-46.7,3-71.9,1.8
			c-1.3,0.3-3.9,0.6-9.3,0.8c-23.7-0.3-44.7-2.2-72.8-0.1l-15.9-2.7c-22,0.6,21.6,3.5-15.1,4.5c-25.9,0.9-9.7-2.3-18.8-3.1
			c-12.9,1.4-35.3,4.2-59.2,2C273.1,300.9,279.3,301.3,286.6,301.1z M17.9,302.3c0.6-0.1,1.3-0.2,2.1-0.4c1.7-0.2,3.7-0.3,5.6-0.4
			c3.8-0.2,7.3-0.2,9.3,0.3c-3,1.1-5.7,1.4-8.7,1.3c-1.5,0-3.1-0.2-4.9-0.3c-0.4,0-0.9-0.1-1.3-0.1c-0.2,0-0.4-0.1-0.7-0.1
			C18.8,302.5,18.4,302.4,17.9,302.3z M186.5,19c-3.9,0.6-10,0.3-16.8-0.4C174.7,18.5,180.3,18.6,186.5,19z M1336,5.9
			c-0.2,0-0.4,0.1-0.6,0.1C1323.7,5.3,1327.8,5.6,1336,5.9z M1360.3,6.8c2.4-0.3,2.3-0.5,1.2-0.8c-1.7,0.5-7.2,0.5-13.4,0.4
			C1349.9,6.8,1353.1,7.2,1360.3,6.8z M1045.1,318.4l-4.7-0.5C1051.1,317.4,1048.1,317.9,1045.1,318.4z"/>
		<path class="st0" d="M139.7,21.6c-1.5-0.3-1.9-0.7-2.2-1C135.4,20.9,135.3,21.3,139.7,21.6z"/>
		<path class="st0" d="M455.5,300.1l0.8,0c0.5-0.1,0.7-0.2,0.8-0.3L455.5,300.1z"/>
		<path class="st0" d="M982.9,22.7c-5-0.3-7.8-0.6-9.7-1C973,22.2,975.3,22.6,982.9,22.7z"/>
		<path class="st0" d="M1489.4,3.6l-15.6,0.5c7.5-0.1,10.2,0.3,14.1,0.6C1487.5,4.2,1484.6,3.6,1489.4,3.6z"/>
		<path class="st0" d="M1624.9,15.2c2.3-0.2,4.8,0,7.1-0.3l-0.6-0.9C1621.6,14.1,1614.9,14.8,1624.9,15.2z"/>
		<path class="st0" d="M1503.9,9.8c1.2,1.6,11,1,22,0.8c-0.7,0-1.3,0-1.9,0C1527.1,8.4,1515.5,9.1,1503.9,9.8z"/>
		<path class="st0" d="M1528.4,10.5c3.4-0.1,6.8-0.1,10.1,0C1539.8,9.6,1534.4,10.3,1528.4,10.5z"/>
		<path class="st0" d="M1391.2,5.7c5.2,0.4,3.3-2,6.2-1.4C1403.2,2.3,1362.9,6.8,1391.2,5.7z"/>
		<polygon class="st0" points="1512.7,15 1508.8,13.1 1502.7,14.6 		"/>
		<path class="st0" d="M1426.4,13.6l17.5,0.5c-0.3-0.3,2-0.5,4.7-0.7C1437.8,13.4,1426,13,1426.4,13.6z"/>
		<path class="st0" d="M1448.6,13.5c5.6,0,10.9,0,14.1-0.3C1459.6,13.2,1453.1,13.2,1448.6,13.5z"/>
		<polygon class="st0" points="1488.9,15.6 1483.7,15.2 1471.4,15.1 		"/>
		<path class="st0" d="M1238.7,13.2l-19.1,0.6c-1.9,0.7,3.3,1.1,10.4,0.8C1234.5,14.1,1241.6,13.9,1238.7,13.2z"/>
		<path class="st0" d="M1296.3,18.6c-5.2-0.4-5.5-0.8-8.4-1.5l-0.6,2.4L1296.3,18.6z"/>
		<path class="st0" d="M1240.7,19.1c-1.9,0.7-27.7,1.9-3.5,1.8C1239.1,20.2,1258.2,19.7,1240.7,19.1z"/>
		<polygon class="st0" points="953.5,16.1 958.3,16 957.6,12.1 		"/>
		<path class="st0" d="M700.3,25.6c22.6,1,5.4-2.4,25.8-1.3c5.3-0.9-16.7-1-11.2-1.8C701.2,23.5,694,22.9,700.3,25.6z"/>
		<path class="st0" d="M714.8,22.5c2.2-0.2,4.5-0.3,7-0.6C717.8,22.2,716,22.4,714.8,22.5z"/>
		<polygon class="st0" points="1932,320.4 1946.5,321.2 1937.2,319.9 		"/>
		<path class="st0" d="M1959.9,317.5l3.4,2.5l8.7-2.3C1968.8,317.8,1962.4,318,1959.9,317.5z"/>
		<path class="st0" d="M18.9,267.3l-0.5-1.4c-0.5,2.9-0.5,7.3-0.6,16.2L18.9,267.3z"/>
		<polygon class="st0" points="171.9,299.1 168.5,299.1 174.8,301.4 		"/>
		<path class="st0" d="M337.2,296.2c-6.7-0.1-14.7,0.4-21.5,0.3C330.5,296.1,339,299.1,337.2,296.2z"/>
	</g>
</g>
</svg>
