<?xml version="1.0" encoding="UTF-8"?>
<svg id="Layer_2" data-name="Layer 2" xmlns="http://www.w3.org/2000/svg" viewBox="0 0 227.07 77.13">
  <defs>
    <style>
      .cls-1 {
        fill: #fff;
        stroke-width: 0px;
      }
    </style>
  </defs>
  <g id="Layer_1-2" data-name="Layer 1">
    <g>
      <rect class="cls-1" x="4.42" y="7.51" width="217.24" height="64.44"/>
      <g>
        <path class="cls-1" d="m225.51,71.17c-.06.98.6.63.72.78-.15-1.64-.89-.74-.72-.78Z"/>
        <polygon class="cls-1" points="224.01 54.96 224.28 55.25 223.61 52.86 224.01 54.96"/>
        <path class="cls-1" d="m224.02,39.81c-1.13,1.43.18,5.49-.22,8.19l-.26.45.91,1.22c-.14-3.28-.75-7.55-.43-9.86Z"/>
        <path class="cls-1" d="m226.45,31.72c-.44.5-.38-1.75-.14,1.88.05-.18.08-.24.11-.34,0-.33,0-.78.03-1.54Z"/>
        <path class="cls-1" d="m226.43,33.27c.03,1.6.37-1.04,0,0h0Z"/>
        <path class="cls-1" d="m226.18,25.89l.39,2.1c.26-.44.32-2.31.51-1.62-.21-2.16-.47-1.71-.9-.49Z"/>
        <path class="cls-1" d="m225.36,23.9l.17,1.09c.11-.19.15-.48-.17-1.09Z"/>
        <path class="cls-1" d="m225.87,27.3l-.35-2.31c-.18.3-.55.34.13,1.06-.33-.19-.01.27.22,1.25Z"/>
        <path class="cls-1" d="m225.7,28.61c-.25,1.18-.4,2.7-.79.59.15,4.02.95,3.43.79-.59Z"/>
        <path class="cls-1" d="m222.85,39.03l-.33,1.58.38,1.36c-.19-.68.31-3.04-.05-2.94Z"/>
        <path class="cls-1" d="m226.76,10.93c-.24-.13-.64,1.49-.95,1.8l.14,1.29.07.66c.02.25.05.44.07.53.16-1.1.32-4,.67-4.29Z"/>
        <path class="cls-1" d="m225.82,12.73l-.41-3.66c-.05,3.36.15,3.93.41,3.66Z"/>
        <polygon class="cls-1" points="224.1 23.53 224.97 27.34 224.09 22.79 224.1 23.53"/>
        <path class="cls-1" d="m221.43,1.19l2.35-.68c-1.42.34-2.75.69-4,1.03l1.65-.35Z"/>
        <path class="cls-1" d="m213.98,1.31c.79-.57-1.08-.96-.25-1.31-1.3.1-2.4.59-3.4,1.03,1.06-.24,2.19-.18,3.65.28Z"/>
        <path class="cls-1" d="m208.66,1.66c.53-.14,1.08-.38,1.67-.64-.56.13-1.12.32-1.67.64Z"/>
        <path class="cls-1" d="m225.34,2.75c-.1-.18-.18-.65-1.92-.84.26.28.5.55.71.83.37,0,.78,0,1.2.01Z"/>
        <path class="cls-1" d="m224.16,2.77l-.02-.03c-1.3-.02-2.21-.04-2.59-.05.33,0,1.12.03,2.62.07Z"/>
        <path class="cls-1" d="m225.52,2.91v-.15s-.18,0-.18,0c.03.05.06.08.12.07,0,.04.02.07.05.08Z"/>
        <path class="cls-1" d="m224.71,17.43c-.19-.68-.38-1.74-.6-2.27-.11-.27-.23-.53-.35-.37-.12.18-.26.5-.4,1.19.46.98.79-.6,1.36,1.46Z"/>
        <path class="cls-1" d="m224.68,5.63l-.15,3.79c.18-.17.44-1.05.62-.11l-.47-3.68Z"/>
        <polygon class="cls-1" points="224.46 4.09 224.68 5.63 224.73 4.2 224.46 4.09"/>
        <path class="cls-1" d="m212.09,2.44c-.86.36-1.81.39-2.88.45,1.14.16,2.33.25,3.45.25.16-.26.65-.73-.57-.7Z"/>
        <path class="cls-1" d="m216.83,2.67c-.1.01-.22.03-.32.05.19.07.34.09.32-.05Z"/>
        <polygon class="cls-1" points="198.7 2.89 198.87 3.04 198.91 2.9 198.7 2.89"/>
        <path class="cls-1" d="m212.86,3.3c.86.16,1.37-.04,1.86-.3-.64.08-1.32.14-2.06.14-.07.12-.08.2.19.16Z"/>
        <path class="cls-1" d="m205.73,2.05c.45.17.96.32,1.49.46-.44-.26-1.33-.67-1.49-.46Z"/>
        <path class="cls-1" d="m216.05,2.49c.07-.01.14-.02.22-.04-.47-.18-.41-.09-.22.04Z"/>
        <path class="cls-1" d="m216.05,2.49c-.18.03-.38.07-.5.1-.1.04-.2.09-.29.13-.18.1-.36.19-.54.28.65-.1,1.26-.19,1.8-.28-.17-.06-.34-.15-.47-.23Z"/>
        <path class="cls-1" d="m195.52,8.23c.15-.77,2.41-1.48,4.36-.66,1.92-.58.66-3.12-1.01-4.53-.06.34-.06.65-2.04,1.1.69.42,4.39.99,2.72,1.68-2.62.4-2.15-.27-3.42-.68,1.08.96-3.33,1.4-2.76,2.81l2.3-.5c.04.22-.79.57-.15.77Z"/>
        <path class="cls-1" d="m202.64,3.12l.81-.1c-.93-.13-1.59-.44-2.81-1.05-1.35.38-1.63.66-1.73.92l4,.11-.28.12Z"/>
        <path class="cls-1" d="m207.1,3.02c-.64.84-2.59,1.2-1.39,2.1,2.39-.06,1.67-.7,3.1-1.07-3.85.21,1.11-.47-1.68-.94.76-.14,1.44-.19,2.08-.22-.69-.1-1.36-.23-1.99-.38.03.02.06.03.09.05h.02s0,.01,0,.01c.17.1.22.17.03.11-.01.01-.06.01-.08.02-.03.12-.1.22-.17.32-1.12-.17-.18-.22.17-.32.01-.04.04-.08.05-.12h-.01s-3.86.45-3.86.45c.82.12,1.84.09,3.65,0Z"/>
        <path class="cls-1" d="m221.9,13.38c.06-.17.11-.18.16-.2-.08-.3-.14-.4-.16.2Z"/>
        <path class="cls-1" d="m222.31,11.1c.09.32.37.52.3,1.86-.2,1.17-.33.07-.55.21.18.61.49,2.63.82.06l-.09-.38c.12-1.16.39-2.63.64-3.89.25-1.24.49-2.22.54-2.03-.61,1.34-1.05,2.38-1.65,4.17Z"/>
        <path class="cls-1" d="m215.98,5.08l-3.31.41,1.64.73-.08-.44c1.8.17,1.48-.37,1.76-.7Z"/>
        <polygon class="cls-1" points="198.34 2.47 198.76 1.58 196.91 2.84 198.34 2.47"/>
        <polygon class="cls-1" points="194.16 2.58 194.32 1.81 193.21 2.27 194.16 2.58"/>
        <path class="cls-1" d="m8.17,64.11c.06.51.12.44.18.63-.05-.18-.11-.28-.18-.63Z"/>
        <path class="cls-1" d="m8.21,55.67l-.31-.21c.17.39.29.55.31.21Z"/>
        <path class="cls-1" d="m91.63,2.66c-1.37-.72-2.91-1.84-2.75-.97l.42.84c.96-.15,1.7-.06,2.32.12Z"/>
        <path class="cls-1" d="m21.4,7.71c.13.08.27.17.4.26.33-.29.65-.56.93-.81-.4.17-.86.35-1.33.55Z"/>
        <path class="cls-1" d="m20.43,11.2l-1.81-.54c.41.19.99.37,1.81.54Z"/>
        <path class="cls-1" d="m35.39,66.43l1.1-.86c-1.72,0-.96.44-1.1.86Z"/>
        <path class="cls-1" d="m151.4,2.89c-1.19-.33-2.13-.47-2.96-.51,1.43.48,2.58,1.21,2.96.51Z"/>
        <path class="cls-1" d="m.9,60.79c.12.71.26,1.02.42,1-.12-.73-.25-1.15-.42-1Z"/>
        <path class="cls-1" d="m145.01,2.38c.21.08.41.13.63.2.87-.14,1.74-.26,2.8-.2-1.06-.36-2.26-.58-3.43,0Z"/>
        <path class="cls-1" d="m170.76,67.13c.1.04.22.06.31.1.03-.11-.11-.12-.31-.1Z"/>
        <path class="cls-1" d="m210.2,75.66c-.39.05-1.02.05-1.62.06.29.06.78.05,1.62-.06Z"/>
        <path class="cls-1" d="m177.36,2.21c.89-.06.14-.09,0,0h0Z"/>
        <path class="cls-1" d="m181.67,5.55c-.19.1-.33.22-.35.41.07-.2.2-.33.35-.41Z"/>
        <path class="cls-1" d="m136.2,7.64s-.05,0-.08,0c.26.17.22.13.08,0Z"/>
        <path class="cls-1" d="m178.7,2.59c-.33-.1-.72-.19-1.13-.25.18.07.53.15,1.13.25Z"/>
        <path class="cls-1" d="m178.52,2.19c.31.03.55.06.77.08.11-.14.01-.23-.77-.08Z"/>
        <path class="cls-1" d="m176.13,2.25c.51-.01.98.03,1.43.09-.17-.06-.25-.1-.2-.13-.26,0-.63.02-1.23.05Z"/>
        <path class="cls-1" d="m98.23,69.39c.06.03.13.04.19.08.89-.35.5-.29-.19-.08Z"/>
        <path class="cls-1" d="m68.58,11.44s.06-.03.1-.04c-.04,0-.09-.02-.13-.03l.03.07Z"/>
        <path class="cls-1" d="m65.4,12.07c1.35-1.05,2.12-.92,3.15-.7l-1.05-2.44-2.1,3.14Z"/>
        <path class="cls-1" d="m14.43,67.08l-2.23-.76c2.7-1.25,4.65-.82,2.55-1.89-.08.66-.66,1.01-1.49,1.2-.42.1-.9.15-1.41.19-.44.02-.91.05-1.38.07-.43.07-.84.13-1.79,1.46-.07-.17-.1-.34-.11-.5l.04-.11s0,.04,0,.06c.11-.01.22-.13.32-.11,0-.13,0-.21-.02-.26.16-.5-.27-.15-.71-.08-.44.11-.88-.16-.74-1.27.04-.21.09-.4.15-.55.06-.09.12-.5.18-.62.13-.34.27-.35.4.19l-.53-3.54c.04-1.03.41-.78.37.25l-.17-5.39.06.04c-.34-.77-.86-2.51-1.08-3.36.31-1.37.23.69.49.34l-.52-2.99c.56-1.22,1.09,1.26,1.01,3.32,2.14-2.79-.54-2.48.71-8.5l.27,2.82c1.22-1.82.78-4.02,1.53-7.21-.4.76-1.91,6.38-2.44,3.14.16-.91.24-2.12-.19-3.87.76-.02.57-1.72.53-3.86l1.01.15c-.29-2.31-.81-2.13-1.26-3.49.1-2.57.88-3.11,1.54-3.71.16-4.12-1.25,2.85-1.44-2.03.39-3.43-.03-5.84-.63-9.94.35-2.4.62.42.91-.44l-.2-.53-.1-.27c-.03-.06-.07-.08-.1-.12-.13-.15-.27-.33-.4-.53.02-.25.27-.09.39-.03-.16-.42-.41-.56-.66-.75-.25-.2-.49-.46-.63-1.46-.49-.56-.24-1.26.1-1.76.69.26,1.37.56,1.89.69.53.13.91.08,1.31-.36.41.35-.08.76.11,1.25.22-.13.27-.24.61-.33.36-.09.67-.17.94-.24.54-.15.93-.26,1.31-.36.74-.23,1.4-.5,2.99-1.19l2.71.82c-1.99-.94.55-2.04,2.78-2.95-.71-.45-1.31-.85-1.72-1.04l3.56-.67c.43.2.07.63-.51,1.15.24-.1.47-.2.65-.3,1.27.46.61,1.18-.3,1.88-.43-.26-.86-.52-1.28-.77-.88.76-1.7,1.59-1.52,2.32.23-.14.68-.27,1.17-.34-.23.21-.38.39-.27.51.12.13.49-.14,1.07-.46l.81,1.39.2-.55,4.66.87c3.33-1.4,6.23-3.46,11.51-4.03-1.31,1.02-.28,1.66-.35,2.87-1.44-1.28-4.09.54-6.83.28,1.43.13,1.12.71.75.91l4.89-1.16c-.11.99,1.04.74,2.31,1.15-.96-1.95,3.64-1.3,5.63-1.9.12.66-.35,1.32-2.78,1.17,2.68,1.47,3.46-2.29,6.09-1.04-.59.02-.91-.08-1.15.25,1.38-.58,4.77-.12,3.97.45h-.59c3.93.24,11.97.03,12.56-1.63.04.21-.52,2-.75,2.33l7.02-5.57c-.62,1.42,1.75,4.81-1.51,5.61.94.2,2.09.44,4.07-.06-.64-.2-1.59-2.06-.72-2.19,2.4,1.58,1.66.85,4.62,2.2-.96-.31.11-2.54,1.62-2.46-.24.33.13,2.2-.43,2.43l3.77-2.19c-.94.39-.17,1.86.68,2.48-.39-.43,3.26.04,4.26-.18l-1.6-.51c4.25.33,4.2-3.08,8.42-2.97-.51.45-1.26,2.78.88,3.06.98-1.12,4.35-5.4,8.08-6.26l.72.64,2.86-.73c-1.78,1.69-6.79,5.24-9.52,6.62,1.59.51.44.76,2.83.7.84.6-1.3.91-2,.95l5.55.39c-.25-1.31,4.24-1.31,4.03-2.4l-6.03,1.36c-.24-1.31,3.48-3.72,7.41-3.49,1,.52-.75,2.33-.67,2.77.51-.45,3.73-.86,4.09-.54l-1.67.7c2.19.49,3.57-1.74,6.2-.49.91.08,2.71,1.69,2.87.91-1.48-1.49-1.77-6.12-.78-7.24.32.1,4.77,1.43,5.8,2.17,1.49,1.17-2.24,2.79-.97,3.8.05-.36.88-.8,1.22-.94.95.31-.39,1.11,1.68.95.35-1.33,4.21.11.98-1.12,2.03-.38,2.15.27,4.53.22-.76-.86,2.14-2.92,4.17-3.3-.12.34.34.78.56.98,4.15.12,6.38.72,10.25.73.36.32,2.23.71,1.43,1.28.56-.23,1.07-.68,2.26-.72,2.31,1.15-2.66.18-.9,1.56.15-.77,3.09-1.06,4.79-1.55-.52-1.19-3.93-.23-5.63.25,0-1.64,2.96-3.36,7.01-4.12,3.22-.41,1.39,1.06,1.95.83,6.04.29,5.15-2.87,10.17-1.68,1.99,1.05.09,2.08.53,2.84-2.62.4-4.02-.66-5.8-.62l2.19.5c-.83.35-2.58.61-3.54.31,1.67.94,10.21.18,14.87,1.05.83-.35,2.26-.71,1.58-1.14l-1.47.15c-1.36-.84,2.78-1.17.91-1.56,1.98-.59,4.2-1.53,6.98-1.05l.52,1.19c-.06-.35-1.82-.71-2.6-.35,1.16-.53,4.27,1.62,5.54.05l-1.95-.83c1.99-.6,4.44-1.87,6.91-1.49-1.12-1.18-.57.13-2.32-1.24,1.52,1.72-6.32-.07-3.87,1.73-1.8-1.6-3.12-.68-5.47-2.04.07.39.83.75-1.24.56-.09.12-.31.26-.45.35-.06-.01-.09-.02-.14-.03.04.02.07.03.11.05-.09.06-.1.07.04.02.49.17.89.38,1.06.6-1.03.9-4.32.88-5.44,1.34-1.23-.19.51-.45-.16-.87l-1.66.7c-.16-.88-3.27-1.45-.37-1.97l-2.61-.04c-1.54-.49-3.65-.69-4.95-.32-1.23-.19-3.11.97-2.03.28l-4.09.54-.04-.22c-4.03-.11-8.31,1.45-12.92-.13-1.36.22-2.76.49-5.03.24l-.44-.76c-1.74.26-5.24-.76-5.99.03-1.88-2.04-8.46-.44-11.53-.81l-.12.99c-2.11-.06-4.14.22-6.76.62l.16.87c-2.26.72-5.81-.62-9.38-.53.24-.33,1.15-.25,1.79-.04-4.27-1.97-9.01,1.43-12.88,0-.96.32-1.66.21-2.34-.01.09,0,.17-.02.24-.05-.1-.01-.25-.01-.4-.01-.43-.15-.86-.33-1.34-.46.4.21.79.39,1.13.47-.74.02-1.87.13-2.98.35l-.47-.94c-.09,0-.16.02-.26.03-1.09-.35-.87.44-.29,1.15-.56.15-1.07.34-1.46.57-.88-1.51-2.9.51-4.11-1.1-.75.79-5.56.59-6.15,2.25-.04-.22-.36-.32.23-.33-1.23-.19-2.47-.38-3.57.09l-.52-1.19-2.69,1.6c-1.64-.73-2.31-1.15-.69-2.07-3.92,1.41-3.18.53-6.52,1.93l.16-.77c-1.19.03-3.1,1.06-3.82.42-2.67-1.47-13.2-.2-20.05-1.56,1.33,2.27-3.18-1.02-3.45.74-.4-.54-1.35-.84-.24-1.31-3.49.53-5.25-.85-7.66.63-.4-.54.75-.79.39-1.11-.28.12-1.11.47-1.47.15-.36-.32.51-.45,1.06-.68-3.57.09-3.93,1.74-4.19,3.3-1.81-.74-2.71-.63-4.02.39-.63-.51-1.68-1.04.54-1.22-1.25-.07-7.62-.74-7.75.5-.39-.32-1.74-.09-2.07.05-3.61-.07-4.13-.19-7.73-.07l1.16.2c-.16.53-.49.73-1.01.77.06,1.27-.3,2.47-.21,4.77l-.12-.17c-.22,1.87-.3,3.16-.32,4,0,.46,0,.72.01.9.02.21.04.37.06.54.09.67.16,1.32-.34,4.42l.76-.34c1.63.58-.96,5.48-.34,9.07l.43-1.3c.56,1.96-2.21,5.48-2.42,7.45-.14.43-.23-.68-.33-1.28-.96,5.16.99.67,1.22,4.51-.53.71-1.36-.91-1.46,1.67-.43,1.29,1.74,7.5.71,11.03.41-.78.82-1.55,1.13.24.15,2.74-1.56,7.4-.26,9.87-.11.35-.22.48-.32.49.34,1.34.56,8.91,1.26,9.69-.52.96-.79,2.31-.89,3.85,2.08.26,5.64-.26,8.1-.55.53-.06,1.02-.11,1.47-.15.39-.03.74-.02,1.03.03.58.1.93.38.93.98l5.21-.16-.14.3c3.33.2,4.51-.52,5.68-1.23.77.2.21.48.14.64,4.87.6,5.35.47,9.43-1.01l.42.97c1.11-.56,7.04,1.51,11.81.39-.05.11-.15.3-.52.43,5.37-1.13,12.86,2.68,14.83-.84l3.55-.87c-4.59-.27.68-1.53-1.2-2.11,1.8-.21,4.66,1.06,2.45,1.24l-.35-.18c-.81,1.83,5.7.65,5.58,1.9,9.03-.09,17.82.92,26.28,1l-.97-1.42,2.95.08c.77.33,1.04,1.11-1.06,1.06,1.11.81,3.53-.68,3.59-.99,4.12.58-1.61,1.66-.35,1.7l1.72-.11-.39-.17c1.39-.58,1.51-1.2,4.04-1.13,1.6.29.82.88,1.45.93,0,.1.21.15.97.04l3.72.12-1.49-1.12c1.65-.55,3.49.06,1.78-1.22,2.52,1.96,13.86.71,15.4,1.32,2.31-.82,4.58-.81,7.4-.71-.7-.23-1.12-1.5,1.31-1.34-.89,2.61,4.45,1.13,6.42,3.01-1.76-1.24,6.92-.31,4.16-2.08,2.03.21.12.98,1.66,1.59,4.83-1.01,10.65.66,16.62.32.09-.34-.91-.87.37-1.38l3.15,1.71c1.18-.17,1.09-1.98,3.24-.79-.3-.29-.76-.72.03-.83,11.7,1.67,23.9-1.37,35.78,1.77-1.61-.66-.54-.73.69-.75-.8-.16.02-.85-.14-1.31l4.97,1.29c.91-1.29,5.33-.09,5.85-1.32l-1.57.22c2.09-1.45-2.93-3.23-2.62-5.1-2.35,1.65-6.18-2.45-10.03-.08-.85-.38.72-.6.27-1.03-.98.8-2.15.97-4.34.61l.25-.2c-6.13.19-8.76-.59-15.65-1.12l.51.92c-1.48-.12-1.79-.41-2.49-.64-1.7,1.4,4.16.08,2.61,1.62-1.96-1.88-10.44-.03-11.77-2.16-2.28-.01.67,1.07-1.61,1.06l-.6-.58-.58.74c-1.49-.12-2.25-.84-2.3-1.33.36.06,1.03-.14,1.42-.18-1.94-.68-5.46.23-6.12.01l2.19.36c-6.22.54-13.8-.22-19.81.96l.46.44c-4.59.81-3.67-.48-8.71-.11l.18-.1c-1.01.43-2.35.65-3.73.6,1.27-.51-2.39-.99-.72-1.55-4.97.86-2.46.68-5.74,2.3l-.76-.72c-1.12.65-1.21,1-3.73,1.18,2.06-.62-1.6-1.1.71-1.92-5.28-1.58-7.83,1.59-10.25-.72-2.42,2,4.57,1.11,3.21,1.54,1.14.65-2,1.49-3.66,1.29-1.69-.04-2.87-2.56-7.11-2.52.42,0,.45-.14.87-.13-1.59-.51-3.11.69-5.06-.14-1.09,1.21-2.53-.07-2.84,1.47l3.89-.36c-2.2.4-4.27,2.21-7.9,1.33.28-.31,1.36-.72,2.11-.95-1.06-.45-2.05.3-3.15-.17.31-1.54,4.73-.34,7.09-1.51-1.14-.65-4.47,1.12-3.28-.55-1.71,2.12-4.18-.27-7.05,1.35l.19-.92c-.45.15-1.4.58-2.23.56l1.51-1.2c-2.32,1.02-4.48-.89-6.71-.34,4.67-.03,1.05,1.11,3.02,1.79-5.76,1.24-3.31-2.42-9.76-1.97.87-.13,3.28.56,1.91.98-1.23-.19-2.85-.54-3.6-1.03-4.27.19.66.95-1.16,1.52-1.45-1.13-2.1.46-3.97.82v-.94c-4.88-.6-1.3,1.96-5.69,1.23l1.85-1.3-2.28.34.47-1.07c-2.49.79-3.26.59-5.69.29.57.66-.32,1.71-2.47,1.73-1.47-.56.82-.89-2.23-.76.69-.59,1.45-1.33,2.78-.46.14-.31.68-.59.82-.89-1.58-.64-3.98-.15-5.09-.14.43.04.94.09,1.2.22l-4.43,1.3c-.7-.35-.14-.64.4-.91-.9.1-1.52.53-2.84.61.34-.76.26-1.55,2.13-1.91l-4.22.85c-.28-.33-2.17-.91-1.62-1.19-2.34-.45-5.74,1.48-8.84.89-.16.15-.48.29-1.14.4-2.92-.17-5.5-1.11-8.95-.06l-1.96-1.37c-2.71.31,2.65,1.72-1.85,2.24-3.19.44-1.19-1.17-2.31-1.55-1.59.69-4.35,2.09-7.28.98.97-.26,1.73-.06,2.64-.16Zm-6.56-23.97c.16.8.65,2.39.2,2.97-.87-.91-.45-1.61-.2-2.97ZM26.32,9.51c-.48.31-1.22.16-2.06-.2.61-.08,1.3-.04,2.06.2ZM167.66,2.97s-.05.03-.07.05c-1.44-.37-.93-.22.07-.05Zm3,.41c.3-.13.28-.26.15-.39-.21.24-.88.25-1.65.19.21.25.6.42,1.49.21Zm-62.97,72.33l-.58-.25c1.32-.27.95-.03.58.25Z"/>
        <path class="cls-1" d="m20.56,10.8c-.18-.16-.23-.33-.28-.51-.25.16-.26.34.28.51Z"/>
        <path class="cls-1" d="m35.19,66.59h.1c.06-.05.09-.1.1-.16l-.2.16Z"/>
        <path class="cls-1" d="m124.25,11.35c-.62-.14-.96-.31-1.19-.48-.03.23.25.42,1.19.48Z"/>
        <path class="cls-1" d="m186.53,1.78l-1.92.24c.93-.05,1.26.16,1.73.31-.04-.22-.41-.54.19-.55Z"/>
        <path class="cls-1" d="m203.18,7.6c.28-.12.59-.01.87-.13l-.08-.44c-1.19.03-2.03.38-.79.57Z"/>
        <path class="cls-1" d="m188.31,4.91c.15.79,1.36.52,2.7.38-.08,0-.16,0-.24,0,.4-1.11-1.04-.74-2.46-.38Z"/>
        <path class="cls-1" d="m191.32,5.25c.41-.04.84-.06,1.24-.02.16-.44-.5-.09-1.24.02Z"/>
        <path class="cls-1" d="m174.45,2.86c.64.2.4-1.01.76-.69.71-1.01-4.25,1.22-.76.69Z"/>
        <polygon class="cls-1" points="189.39 7.51 188.91 6.53 188.16 7.32 189.39 7.51"/>
        <path class="cls-1" d="m178.78,6.79l2.15.27c-.03-.16.24-.26.58-.33-1.32-.03-2.77-.23-2.72.06Z"/>
        <path class="cls-1" d="m181.5,6.73c.69.02,1.35,0,1.73-.16-.37.01-1.18.04-1.73.16Z"/>
        <polygon class="cls-1" points="186.46 7.8 185.82 7.6 184.31 7.53 186.46 7.8"/>
        <path class="cls-1" d="m155.69,6.61l-2.34.28c-.24.33.4.54,1.27.41.56-.23,1.43-.36,1.07-.69Z"/>
        <path class="cls-1" d="m162.78,9.28c-.63-.2-.68-.42-1.03-.74l-.07,1.21,1.11-.47Z"/>
        <path class="cls-1" d="m155.94,9.56c-.23.34-3.4.96-.43.89.24-.33,2.59-.61.43-.89Z"/>
        <polygon class="cls-1" points="120.62 8.03 121.22 8.01 121.14 6.03 120.62 8.03"/>
        <path class="cls-1" d="m89.49,12.78c2.78.48.66-1.22,3.17-.63.65-.47-2.05-.48-1.38-.89-1.68.49-2.56.21-1.79,1.52Z"/>
        <path class="cls-1" d="m91.28,11.26c.27-.08.55-.17.86-.3-.49.12-.71.22-.86.3Z"/>
        <polygon class="cls-1" points="216.74 76.72 218.53 77.13 217.38 76.47 216.74 76.72"/>
        <path class="cls-1" d="m220.17,75.25l.42,1.26,1.07-1.14c-.4.06-1.19.17-1.49-.12Z"/>
        <path class="cls-1" d="m9.94,36.99l-.25-.17c-.27.34-.29.86-.33,1.89l.57-1.72Z"/>
        <path class="cls-1" d="m9.17,64.97l.02-.12c-.31.17-.62.38-.93.65.3-.2.6-.37.91-.53Z"/>
        <path class="cls-1" d="m20.65,64.63c-.83-.05-1.81.21-2.64.16,1.81-.21,2.86,1.27,2.64-.16Z"/>
      </g>
    </g>
  </g>
</svg>