<?xml version="1.0" encoding="UTF-8"?><svg id="Layer_2" xmlns="http://www.w3.org/2000/svg" viewBox="0 0 2074.5 449.5"><defs><style>.cls-1{stroke-width:0px;}</style></defs><g id="Layer_1-2"><path class="cls-1" d="m2084,83.6c-8.3-8.7-17.1-17.9-15.8-27.2-21.8,18.4-57.6-27.2-93.4-.9-7.9-4.2,6.7-6.7,2.5-11.5-9.1,8.9-20.1,10.8-40.4,6.8l2.3-2.2c-57.1,2.2-81.6-6.6-145.8-12.4l4.8,10.3c-13.8-1.4-16.7-4.6-23.2-7.2-15.8,15.6,38.7.9,24.3,18-18.3-20.9-97.2-.3-109.6-24-21.2-.1,6.2,11.9-15,11.7l-5.6-6.4-5.4,8.3c-13.9-1.4-20.9-9.4-21.4-14.8,3.4.6,9.6-1.5,13.2-2-16.7-7-46.2,1.2-55.3.5l18.6,3.6c-57.9,6-128.6-2.4-184.5,10.6l4.2,4.8c-42.7,9-34.2-5.3-81.1-1.2l1.7-1.2c-9.4,4.8-21.9,7.3-34.8,6.7,11.8-5.7-22.3-11-6.8-17.3-46.3,9.6-22.9,7.5-53.5,25.5l-7.1-8c-10.4,7.3-11.3,11.1-34.7,13.2,19.2-6.9-14.9-12.2,6.6-21.4-49.1-17.6-73,17.7-95.5-8-22.6,22.2,42.5,12.4,29.9,17.1,10.6,7.3-18.6,16.6-34.1,14.4-15.7-.5-26.7-28.4-66.2-28,3.9.1,4.2-1.6,8.1-1.5-14.8-5.7-29,7.7-47.1-1.5-10.2,13.4-23.5-.8-26.5,16.4l36.2-4c-20.5,4.5-39.8,24.6-73.6,14.8,2.6-3.5,12.7-8,19.6-10.5-9.9-5.1-19.1,3.3-29.3-1.8,2.9-17.2,44-3.7,66-16.8-10.6-7.2-41.6,12.4-30.6-6.2-15.9,23.6-38.9-3-65.7,15.1l1.8-10.3c-4.2,1.6-13,6.5-20.8,6.2l14.1-13.3c-21.7,11.4-41.7-9.9-62.5-3.8,43.5-.3,9.8,12.4,28.1,19.9-52.9,13.6-31.5-25.8-88.4-22.1,9.4,0,26.9,6.8,15.3,11.1-11.4-2.1-26.5-6.1-33.5-11.5-39.8,2.1,6.1,10.6-10.8,16.9-13.5-12.5-19.5,5.1-37,9.1v-10.5c-45.5-6.7-12.1,21.8-53,13.7l17.2-14.5-21.3,3.8,4.4-11.9c-23.2,8.8-30.3,6.5-53,3.2,5.3,7.4-3,19-23,19.3-13.7-6.2,7.7-9.9-20.8-8.4,6.4-6.5,13.5-14.8,25.8-5.1,1.3-3.4,6.3-6.6,7.6-9.9-14.8-7.1-37.1-1.6-47.4-1.5,4,.4,8.7,1,11.1,2.4l-41.3,14.5c-6.5-3.9-1.3-7.1,3.8-10.2-8.4,1.1-14.1,5.9-26.4,6.8,3.2-8.5,2.4-17.3,19.8-21.3l-39.3,9.4c-2.6-3.7-20.2-10.1-15.1-13.3-21.8-5-53.5,16.5-82.4,9.9-1.5,1.6-4.5,3.2-10.7,4.4-27.1-1.9-51.2-12.3-83.4-.7l-18.3-15.2c-25.2,3.5,24.7,19.2-17.2,24.9-29.7,4.8-11.1-13-21.5-17.2-14.8,7.7-40.5,23.3-67.8,10.9,9-2.9,16.1-.6,24.6-1.8l-20.8-8.4C203.8,7.1,222,11.9,202.5,0c-2.9,29.4-80.9,3-83.8,32.4l-13.7-6.2c3.9.3,4.6-1.5,8.4-1.1-6.7-3.5-11.2-4-14.9-2.7-1.8.6-3.4,1.7-4.9,3,0,0-.2.2-.4.2l-.5.2-.9.5c-.6.4-1.2.7-1.8,1.1-1.2.8-2.4,1.6-3.5,2.4-4.7,3.3-9.4,6.9-16,9.4-6.6,2.5-15,3.9-28.2,2.9-9.4-1.1-18-2.8-23-4.5-5-1.8-6.4-3.7-.8-5.5-13,2.4-25.3,4.8-36.7,7.3-6.2-.3-9.8-1.7-10.2-3-.3-.8.7-1.5,3-1.9l-13.2.5,1.6,45.9-.9-1.1c2.3,6.1,5.2,15.2,8,23.7,2.7,8.5,5.3,16.5,6.8,21.5-2.1,6.5-2.9,4.5-3.6,1-.7-3.5-1.3-8.4-3.2-7.2,2.4,12,4.8,23.4,7.1,34.1-1.9,3-3.8,3.6-5.5,2.4-1.8-1.2-3.3-4.3-4.7-8.6-2.7-8.6-4.2-22.6-3.7-34.6-3.7,2.6-6.3,5.3-8.1,8.1-1.8,2.8-2.9,5.5-3.4,8.3-1,5.6.4,11.3,2,17.9.8,3.4,1.8,7,2.6,11,.4,2,.8,4.2,1.1,6.5.1,1.1.3,2.2.4,3.3.1.8.2,1.5.3,2.4.6,6.5-.3,14.9-4.6,26.2l-3.7-21.3c-16.7,13.7-10.6,30.3-21,54.4,5.4-5.7,26.2-48.2,33.5-23.7-2.2,6.9-3.3,16,2.7,29.2-10.5.1-7.9,13-7.3,29.1l-13.9-1.1c4,17.4,11.1,16,17.3,26.3-1.4,19.4-12.1,23.5-21.1,28-2.2,31.1,17.2-21.5,19.8,15.3-2.6,12.9-2.6,23.9-.8,35.6.9,5.8,2.2,11.8,3.8,18.3.2.8.4,1.6.6,2.5.1.4.2.8.3,1.2.1.6.2,1.3.3,1.9.4,2.6.9,5.2,1.4,7.9.9,5.2,1.9,10.6,3,16.3-1.2,7-2.3,10.5-3.4,11.8-1.1,1.3-2.1.5-3.1-1-2-2.9-3.9-8.6-5.9-2.8,3.7,7.9,7.4,15.1,11.1,21.5-.3,6-3.7,5.8-5.4,5.5,2.1,9.6,5.6,8,9,8,3.4-.1,6.7,1.3,8.6,14.4,6.7-1.4,3.2,11.9-1.3,31.9,3.5,1.5,7.5,3,12,4.4,4.5,1.4,9.6,2.6,15.2,3.3,11.1,1.4,24.3.9,37-4,3.8,2,1.9,4.1-1.1,6.4-3,2.3-7.1,4.8-6.7,7.5,15.6-2.8,25.9-4.8,33.9-6.3,8-1.5,13.5-2.7,18.7-4,1.3-.3,2.6-.7,3.8-1,.6-.2,1.3-.4,1.9-.5.3,0,.7-.2.9-.3l.7-.3c1.8-.8,3.7-1.6,5.8-2.6,4.2-2,9.5-4.7,16.9-8.5l25.3,9.1c-18.6-10.4,5.1-22.7,25.9-32.8-1-.7-1.9-1.5-2.8-2.2h7.2c-1.4.7-2.9,1.4-4.4,2.2,1.2.9,2.5,1.9,3.8,2.9,1.7-1.7,3.3-3.4,4.9-5h16.4c0,4.2-4.3,8.9-9.4,13.6-4-2.7-8.1-5.6-11.9-8.5-8.2,8.4-15.8,17.7-14.1,25.9,2.2-1.6,6.3-3,10.9-3.7-2.1,2.3-3.5,4.3-2.5,5.7,1.1,1.5,4.6-1.6,10-5.1l7.5,15.4,1.8-6.1,43.4,9.7c31-15.5,58-38.4,107.2-44.8-12.2,11.3-2.6,18.5-3.3,31.9-13.4-14.2-38.1,6-63.7,3.1,13.3,1.5,10.4,7.9,7,10.1l45.5-12.9c-1,11,9.7,8.2,21.6,12.8-9-21.7,33.9-14.5,52.4-21.1,1.1,7.3-3.3,14.7-25.9,13,24.9,16.3,32.2-25.5,56.7-11.6-5.5.2-8.5-.9-10.7,2.8,12.9-6.5,44.4-1.4,37,5h-5.5c36.6,2.7,111.5.3,117-18.1.4,2.4-4.8,22.2-7,25.9l45-42.7h20.5c2.6,17,6.8,37-14.3,43.2,8.7,2.2,19.5,4.9,37.9-.7-6-2.2-14.8-22.9-6.7-24.3,22,17.4,15.7,9.6,42,23.9-7.1-4.9,2.6-27.6,16.1-26.9-2.1,3.6.9,22.9-3.4,26.7l32.9-22.8c-6,5.6.7,20,8,26.4-3.6-4.8,30.3.4,39.7-2l-14.9-5.6c39.6,3.7,39.1-34.3,78.4-33-4.8,5-11.8,31,8.2,34,4.9-6.7,16.1-23.3,30.8-38.9h44.3c-18.9,16.3-40.5,33.1-55.2,41.9,14.8,5.7,4.1,8.4,26.3,7.8,7.8,6.7-12.1,10.1-18.6,10.5l51.7,4.3c-2.3-14.6,39.5-14.6,37.5-26.7l-56.1,15.1c-2.3-14.5,32.5-41.3,69.1-38.8,9.3,5.8-7,25.9-6.2,30.8,4.8-5,34.8-9.6,38.1-6l-15.5,7.8c20.4,5.5,33.3-19.3,57.8-5.4,8.4.9,25.2,18.8,26.7,10.1-8.2-9.9-12.5-32.3-12.7-51.4h28.9l-1.2,5.7,5.6-.2-.2-5.6h29.5c3,12.4-22.5,27.4-12.2,37.2.5-4,8.2-8.9,11.4-10.5,8.9,3.4-3.7,12.3,15.6,10.5,3.2-14.8,39.2,1.3,9.1-12.5,18.9-4.2,20.1,3,42.2,2.4-4.7-6.3,5.5-18.5,18.5-27.2h24.3c.4.5.9,1,1.2,1.4,38.7,1.3,59.4,8,95.5,8.2,3.3,3.6,20.7,7.9,13.3,14.3,5.2-2.6,9.9-7.6,21.1-8,21.5,12.8-24.8,2-8.4,17.3,1.4-8.6,28.8-11.8,44.6-17.2-4.9-13.2-36.6-2.5-52.5,2.8,0-6.3,3.3-12.7,9.1-18.8h115.6c25.9,5.7,92.1.2,130.3,8.6,5.4-2.8,13.7-5.6,15.8-8.6h147.9c-.4,1.5-.4,3.1.2,4.9l19-4.9h2.3c-.7,2.4-6.8,5.9-1.4,8,.5-3,3.3-5.8,7.5-8h31.7c.5.2.9.4,1.4.7.6-.2,1.1-.4,1.6-.7h25.5c.9.3,2.1.6,3.7.9,2.1-1,4.4-.5,6.5-.9h261.9V83.6h-45.7,0ZM-37.4,204.9c-2.2-6-9-18-2.8-22.4,12,6.9,6.2,12.2,2.8,22.4Zm232.1,288.7c5.7-.9,12.1-.5,19.2,2.2-4.5,3.5-11.4,1.7-19.2-2.2Z"/></g></svg>