<?xml version="1.0" encoding="utf-8"?>
<!-- Generator: Adobe Illustrator 26.3.1, SVG Export Plug-In . SVG Version: 6.00 Build 0)  -->
<svg version="1.1" id="Layer_1" xmlns="http://www.w3.org/2000/svg" xmlns:xlink="http://www.w3.org/1999/xlink" x="0px" y="0px"
	 viewBox="0 0 143.9 39.6" style="enable-background:new 0 0 143.9 39.6;" xml:space="preserve">
<style type="text/css">
	.st0{fill-rule:evenodd;clip-rule:evenodd;fill:#D80C15;}
	.st1{clip-path:url(#SVGID_00000020365539427625030950000006661442160507832991_);}
	.st2{fill:#DFCFCF;}
	.st3{fill:#D80C15;}
	.st4{fill:#6C210F;}
	.st5{fill:#E3CC62;}
	.st6{fill:#FFFFFF;}
	.st7{fill-rule:evenodd;clip-rule:evenodd;fill:#9D2216;}
	.st8{fill-rule:evenodd;clip-rule:evenodd;}
</style>
<g>
	<g>
		<rect x="2.8" y="3.9" class="st8" width="137.7" height="33.1"/>
		<g>
			<path d="M142.9,36.5c0,0.5,0.4,0.3,0.5,0.4C143.3,36.1,142.8,36.6,142.9,36.5z"/>
			<polygon points="142,28.2 142.1,28.4 141.7,27.1 			"/>
			<path d="M142,20.4c-0.7,0.7,0.1,2.8-0.1,4.2l-0.2,0.2l0.6,0.6C142.1,23.8,141.8,21.6,142,20.4z"/>
			<path d="M143.5,16.3c-0.3,0.3-0.2-0.9-0.1,1c0-0.1,0-0.1,0.1-0.2C143.5,16.9,143.5,16.7,143.5,16.3z"/>
			<path d="M143.5,17.1C143.5,17.9,143.7,16.5,143.5,17.1L143.5,17.1z"/>
			<path d="M143.3,13.3l0.2,1.1c0.2-0.2,0.2-1.2,0.3-0.8C143.8,12.4,143.6,12.7,143.3,13.3z"/>
			<path d="M142.8,12.3l0.1,0.6C143,12.7,143,12.6,142.8,12.3z"/>
			<path d="M143.1,14l-0.2-1.2c-0.1,0.2-0.3,0.2,0.1,0.5C142.8,13.3,143,13.5,143.1,14z"/>
			<path d="M143,14.7c-0.2,0.6-0.3,1.4-0.5,0.3C142.6,17.1,143.1,16.8,143,14.7z"/>
			<path d="M141.2,20l-0.2,0.8l0.2,0.7C141.1,21.2,141.5,20,141.2,20z"/>
			<path d="M143.7,5.6c-0.2-0.1-0.4,0.8-0.6,0.9l0.1,0.7l0,0.3c0,0.1,0,0.2,0,0.3C143.4,7.2,143.5,5.8,143.7,5.6z"/>
			<path d="M143.1,6.5l-0.3-1.9C142.8,6.4,142.9,6.7,143.1,6.5z"/>
			<polygon points="142,12.1 142.6,14 142,11.7 			"/>
			<path d="M140.3,0.6l1.5-0.4c-0.9,0.2-1.7,0.4-2.5,0.5L140.3,0.6z"/>
			<path d="M135.6,0.7c0.5-0.3-0.7-0.5-0.2-0.7c-0.8,0.1-1.5,0.3-2.2,0.5C134,0.4,134.7,0.4,135.6,0.7z"/>
			<path d="M132.2,0.9c0.3-0.1,0.7-0.2,1.1-0.3C132.9,0.6,132.6,0.7,132.2,0.9z"/>
			<path d="M142.8,1.4c-0.1-0.1-0.1-0.3-1.2-0.4c0.2,0.1,0.3,0.3,0.5,0.4C142.3,1.4,142.5,1.4,142.8,1.4z"/>
			<path d="M142.1,1.4L142.1,1.4c-0.8,0-1.4,0-1.7,0C140.6,1.4,141.1,1.4,142.1,1.4z"/>
			<path d="M142.9,1.5L142.9,1.5l-0.1-0.1C142.8,1.4,142.8,1.5,142.9,1.5C142.9,1.5,142.9,1.5,142.9,1.5z"/>
			<path d="M142.4,9c-0.1-0.4-0.2-0.9-0.4-1.2c-0.1-0.1-0.1-0.3-0.2-0.2c-0.1,0.1-0.2,0.3-0.3,0.6C141.8,8.7,142,7.9,142.4,9z"/>
			<path d="M142.4,2.9l-0.1,1.9c0.1-0.1,0.3-0.5,0.4-0.1L142.4,2.9z"/>
			<polygon points="142.2,2.1 142.4,2.9 142.4,2.2 			"/>
			<path d="M134.4,1.3c-0.5,0.2-1.1,0.2-1.8,0.2c0.7,0.1,1.5,0.1,2.2,0.1C134.9,1.5,135.2,1.2,134.4,1.3z"/>
			<path d="M137.4,1.4c-0.1,0-0.1,0-0.2,0C137.3,1.4,137.4,1.4,137.4,1.4z"/>
			<polygon points="125.9,1.5 126,1.6 126.1,1.5 			"/>
			<path d="M134.9,1.7c0.5,0.1,0.9,0,1.2-0.2c-0.4,0-0.8,0.1-1.3,0.1C134.7,1.7,134.7,1.7,134.9,1.7z"/>
			<path d="M130.4,1.1c0.3,0.1,0.6,0.2,0.9,0.2C131,1.2,130.5,0.9,130.4,1.1z"/>
			<path d="M136.9,1.3c0,0,0.1,0,0.1,0C136.8,1.2,136.8,1.2,136.9,1.3z"/>
			<path d="M136.9,1.3c-0.1,0-0.2,0-0.3,0.1c-0.1,0-0.1,0-0.2,0.1c-0.1,0-0.2,0.1-0.3,0.1c0.4-0.1,0.8-0.1,1.1-0.1
				C137.1,1.4,137,1.3,136.9,1.3z"/>
			<path d="M123.9,4.2c0.1-0.4,1.5-0.8,2.8-0.3c1.2-0.3,0.4-1.6-0.6-2.3c0,0.2,0,0.3-1.3,0.6c0.4,0.2,2.8,0.5,1.7,0.9
				c-1.7,0.2-1.4-0.1-2.2-0.3c0.7,0.5-2.1,0.7-1.7,1.4l1.5-0.3C124,3.9,123.5,4.1,123.9,4.2z"/>
			<path d="M128.4,1.6l0.5,0c-0.6-0.1-1-0.2-1.8-0.5c-0.9,0.2-1,0.3-1.1,0.5l2.5,0.1L128.4,1.6z"/>
			<path d="M131.2,1.6c-0.4,0.4-1.6,0.6-0.9,1.1c1.5,0,1.1-0.4,2-0.5C129.9,2.2,133,1.8,131.2,1.6c0.5,0,0.9,0,1.3-0.1
				c-0.4-0.1-0.9-0.1-1.3-0.2c0,0,0,0,0.1,0l0,0l0,0c0.1,0.1,0.1,0.1,0,0.1c0,0,0,0-0.1,0C131.3,1.4,131.3,1.5,131.2,1.6
				c-0.7-0.1-0.1-0.1,0.1-0.2c0,0,0,0,0-0.1l0,0l-2.4,0.2C129.4,1.6,130.1,1.6,131.2,1.6z"/>
			<path d="M140.6,6.9c0-0.1,0.1-0.1,0.1-0.1C140.7,6.6,140.6,6.6,140.6,6.9z"/>
			<path d="M140.9,5.7c0.1,0.2,0.2,0.3,0.2,1c-0.1,0.6-0.2,0-0.3,0.1c0.1,0.3,0.3,1.3,0.5,0l-0.1-0.2c0.1-0.6,0.2-1.4,0.4-2
				c0.2-0.6,0.3-1.1,0.3-1C141.5,4.2,141.3,4.8,140.9,5.7z"/>
			<path d="M136.9,2.6l-2.1,0.2l1,0.4L135.8,3C136.9,3.1,136.7,2.8,136.9,2.6z"/>
			<polygon points="125.7,1.3 126,0.8 124.8,1.5 			"/>
			<polygon points="123,1.3 123.1,0.9 122.4,1.2 			"/>
			<path d="M5.2,32.9c0,0.3,0.1,0.2,0.1,0.3C5.3,33.1,5.2,33.1,5.2,32.9z"/>
			<path d="M5.2,28.6L5,28.5C5.1,28.7,5.2,28.8,5.2,28.6z"/>
			<path d="M58.1,1.4c-0.9-0.4-1.8-0.9-1.7-0.5l0.3,0.4C57.2,1.2,57.7,1.3,58.1,1.4z"/>
			<path d="M13.6,4c0.1,0,0.2,0.1,0.3,0.1c0.2-0.1,0.4-0.3,0.6-0.4C14.2,3.8,13.9,3.9,13.6,4z"/>
			<path d="M12.9,5.8l-1.1-0.3C12.1,5.6,12.4,5.7,12.9,5.8z"/>
			<path d="M22.4,34.1l0.7-0.4C22,33.7,22.5,33.9,22.4,34.1z"/>
			<path d="M95.9,1.5c-0.8-0.2-1.4-0.2-1.9-0.3C95,1.5,95.7,1.8,95.9,1.5z"/>
			<path d="M0.6,31.2c0.1,0.4,0.2,0.5,0.3,0.5C0.8,31.3,0.7,31.1,0.6,31.2z"/>
			<path d="M91.9,1.2c0.1,0,0.3,0.1,0.4,0.1c0.5-0.1,1.1-0.1,1.8-0.1C93.4,1,92.6,0.9,91.9,1.2z"/>
			<path d="M108.2,34.5c0.1,0,0.1,0,0.2,0.1C108.4,34.5,108.3,34.5,108.2,34.5z"/>
			<path d="M133.2,38.8c-0.2,0-0.6,0-1,0C132.4,38.9,132.7,38.9,133.2,38.8z"/>
			<path d="M112.4,1.1C113,1.1,112.5,1.1,112.4,1.1L112.4,1.1z"/>
			<path d="M115.1,2.8c-0.1,0-0.2,0.1-0.2,0.2C114.9,3,115,2.9,115.1,2.8z"/>
			<path d="M86.3,3.9C86.3,3.9,86.3,3.9,86.3,3.9C86.4,4,86.4,4,86.3,3.9z"/>
			<path d="M113.2,1.3c-0.2-0.1-0.5-0.1-0.7-0.1C112.6,1.2,112.9,1.3,113.2,1.3z"/>
			<path d="M113.1,1.1c0.2,0,0.3,0,0.5,0C113.7,1.1,113.6,1.1,113.1,1.1z"/>
			<path d="M111.6,1.2c0.3,0,0.6,0,0.9,0c-0.1,0-0.2-0.1-0.1-0.1C112.2,1.1,112,1.1,111.6,1.2z"/>
			<path d="M62.2,35.6c0,0,0.1,0,0.1,0C62.9,35.5,62.7,35.5,62.2,35.6z"/>
			<path d="M43.5,5.9C43.5,5.9,43.5,5.9,43.5,5.9C43.5,5.8,43.5,5.8,43.5,5.9L43.5,5.9z"/>
			<path d="M41.4,6.2c0.9-0.5,1.3-0.5,2-0.4l-0.7-1.3L41.4,6.2z"/>
			<path d="M9.1,34.4l-1.4-0.4c1.7-0.6,2.9-0.4,1.6-1c-0.1,0.3-0.4,0.5-0.9,0.6c-0.3,0-0.6,0.1-0.9,0.1c-0.3,0-0.6,0-0.9,0
				c-0.3,0-0.5,0.1-1.1,0.7c0-0.1-0.1-0.2-0.1-0.3l0-0.1c0,0,0,0,0,0c0.1,0,0.1-0.1,0.2-0.1c0-0.1,0-0.1,0-0.1
				c0.1-0.3-0.2-0.1-0.4,0c-0.3,0.1-0.6-0.1-0.5-0.7c0-0.1,0.1-0.2,0.1-0.3c0,0,0.1-0.3,0.1-0.3c0.1-0.2,0.2-0.2,0.3,0.1l-0.3-1.8
				c0-0.5,0.3-0.4,0.2,0.1L5,28.5l0,0c-0.2-0.4-0.5-1.3-0.7-1.7c0.2-0.7,0.1,0.4,0.3,0.2l-0.3-1.5C4.7,24.8,5,26,5,27.1
				c1.4-1.4-0.3-1.3,0.5-4.4l0.2,1.4c0.8-0.9,0.5-2.1,1-3.7c-0.3,0.4-1.2,3.3-1.5,1.6c0.1-0.5,0.2-1.1-0.1-2c0.5,0,0.4-0.9,0.3-2
				l0.6,0.1c-0.2-1.2-0.5-1.1-0.8-1.8c0.1-1.3,0.6-1.6,1-1.9c0.1-2.1-0.8,1.5-0.9-1c0.2-1.8,0-3-0.4-5.1c0.2-1.2,0.4,0.2,0.6-0.2
				L5.2,7.9L5.1,7.7c0,0,0,0-0.1-0.1C5,7.6,4.9,7.5,4.8,7.4c0-0.1,0.2,0,0.2,0C4.9,7.2,4.8,7.1,4.6,7C4.5,6.9,4.3,6.7,4.2,6.2
				C3.9,5.9,4.1,5.6,4.3,5.3c0.4,0.1,0.9,0.3,1.2,0.4c0.3,0.1,0.6,0,0.8-0.2c0.3,0.2-0.1,0.4,0.1,0.6C6.5,6.1,6.5,6,6.8,6
				c0.2,0,0.4-0.1,0.6-0.1c0.3-0.1,0.6-0.1,0.8-0.2c0.5-0.1,0.9-0.3,1.9-0.6l1.7,0.4c-1.3-0.5,0.4-1,1.8-1.5
				c-0.4-0.2-0.8-0.4-1.1-0.5l2.3-0.3c0.3,0.1,0,0.3-0.3,0.6c0.2-0.1,0.3-0.1,0.4-0.2c0.8,0.2,0.4,0.6-0.2,1
				c-0.3-0.1-0.5-0.3-0.8-0.4c-0.6,0.4-1.1,0.8-1,1.2c0.1-0.1,0.4-0.1,0.7-0.2c-0.1,0.1-0.2,0.2-0.2,0.3c0.1,0.1,0.3-0.1,0.7-0.2
				l0.5,0.7l0.1-0.3l3,0.4c2.1-0.7,3.9-1.8,7.3-2.1c-0.8,0.5-0.2,0.9-0.2,1.5c-0.9-0.7-2.6,0.3-4.3,0.1c0.9,0.1,0.7,0.4,0.5,0.5
				L24,5.4c-0.1,0.5,0.7,0.4,1.5,0.6c-0.6-1,2.3-0.7,3.6-1c0.1,0.3-0.2,0.7-1.8,0.6c1.7,0.8,2.2-1.2,3.9-0.5c-0.4,0-0.6,0-0.7,0.1
				c0.9-0.3,3-0.1,2.5,0.2l-0.4,0c2.5,0.1,7.6,0,8-0.8c0,0.1-0.3,1-0.5,1.2L44.5,3c-0.4,0.7,1.1,2.5-1,2.9c0.6,0.1,1.3,0.2,2.6,0
				c-0.4-0.1-1-1.1-0.5-1.1c1.5,0.8,1.1,0.4,2.9,1.1c-0.6-0.2,0.1-1.3,1-1.3c-0.1,0.2,0.1,1.1-0.3,1.2l2.4-1.1
				c-0.6,0.2-0.1,1,0.4,1.3c-0.2-0.2,2.1,0,2.7-0.1l-1-0.3c2.7,0.2,2.7-1.6,5.3-1.5c-0.3,0.2-0.8,1.4,0.6,1.6
				c0.6-0.6,2.8-2.8,5.1-3.2l0.5,0.3l1.8-0.4c-1.1,0.9-4.3,2.7-6,3.4c1,0.3,0.3,0.4,1.8,0.4c0.5,0.3-0.8,0.5-1.3,0.5l3.5,0.2
				c-0.2-0.7,2.7-0.7,2.6-1.2l-3.8,0.7c-0.2-0.7,2.2-1.9,4.7-1.8c0.6,0.3-0.5,1.2-0.4,1.4c0.3-0.2,2.4-0.4,2.6-0.3L69.7,6
				c1.4,0.3,2.3-0.9,3.9-0.2c0.6,0,1.7,0.9,1.8,0.5c-0.9-0.8-1.1-3.1-0.5-3.7c0.2,0.1,3,0.7,3.7,1.1c0.9,0.6-1.4,1.4-0.6,2
				c0-0.2,0.6-0.4,0.8-0.5c0.6,0.2-0.3,0.6,1.1,0.5C80,4.9,82.5,5.6,80.4,5c1.3-0.2,1.4,0.1,2.9,0.1c-0.5-0.4,1.4-1.5,2.6-1.7
				c-0.1,0.2,0.2,0.4,0.4,0.5c2.6,0.1,4,0.4,6.5,0.4C93,4.5,94.2,4.7,93.7,5c0.4-0.1,0.7-0.4,1.4-0.4c1.5,0.6-1.7,0.1-0.6,0.8
				c0.1-0.4,2-0.5,3-0.8C97.3,4,95.1,4.5,94,4.7c0-0.8,1.9-1.7,4.4-2.1c2-0.2,0.9,0.5,1.2,0.4c3.8,0.1,3.3-1.5,6.4-0.9
				c1.3,0.5,0.1,1.1,0.3,1.5c-1.7,0.2-2.5-0.3-3.7-0.3l1.4,0.3c-0.5,0.2-1.6,0.3-2.2,0.2c1.1,0.5,6.5,0.1,9.4,0.5
				c0.5-0.2,1.4-0.4,1-0.6l-0.9,0.1c-0.9-0.4,1.8-0.6,0.6-0.8c1.3-0.3,2.7-0.8,4.4-0.5l0.3,0.6c0-0.2-1.2-0.4-1.6-0.2
				c0.7-0.3,2.7,0.8,3.5,0l-1.2-0.4c1.3-0.3,2.8-1,4.4-0.8c-0.7-0.6-0.4,0.1-1.5-0.6c1,0.9-4,0-2.5,0.9c-1.1-0.8-2-0.3-3.5-1
				c0,0.2,0.5,0.4-0.8,0.3c-0.1,0.1-0.2,0.1-0.3,0.2c0,0-0.1,0-0.1,0c0,0,0,0,0.1,0c-0.1,0-0.1,0,0,0c0.3,0.1,0.6,0.2,0.7,0.3
				c-0.7,0.5-2.7,0.4-3.4,0.7c-0.8-0.1,0.3-0.2-0.1-0.4l-1.1,0.4c-0.1-0.4-2.1-0.7-0.2-1l-1.7,0c-1-0.3-2.3-0.4-3.1-0.2
				c-0.8-0.1-2,0.5-1.3,0.1l-2.6,0.3l0-0.1c-2.6-0.1-5.3,0.7-8.2-0.1c-0.9,0.1-1.8,0.3-3.2,0.1l-0.3-0.4c-1.1,0.1-3.3-0.4-3.8,0
				c-1.2-1-5.4-0.2-7.3-0.4l-0.1,0.5c-1.3,0-2.6,0.1-4.3,0.3l0.1,0.4c-1.4,0.4-3.7-0.3-5.9-0.3c0.2-0.2,0.7-0.1,1.1,0
				c-2.7-1-5.7,0.7-8.2,0c-0.6,0.2-1.1,0.1-1.5,0c0.1,0,0.1,0,0.2,0c-0.1,0-0.2,0-0.3,0c-0.3-0.1-0.5-0.2-0.8-0.2
				c0.3,0.1,0.5,0.2,0.7,0.2c-0.5,0-1.2,0.1-1.9,0.2l-0.3-0.5c-0.1,0-0.1,0-0.2,0c-0.7-0.2-0.6,0.2-0.2,0.6
				c-0.4,0.1-0.7,0.2-0.9,0.3c-0.6-0.8-1.8,0.3-2.6-0.6c-0.5,0.4-3.5,0.3-3.9,1.2c0-0.1-0.2-0.2,0.1-0.2c-0.8-0.1-1.6-0.2-2.3,0
				L46.4,2l-1.7,0.8c-1-0.4-1.5-0.6-0.4-1.1c-2.5,0.7-2,0.3-4.1,1l0.1-0.4c-0.8,0-2,0.5-2.4,0.2c-1.7-0.8-8.4-0.1-12.7-0.8
				c0.8,1.2-2-0.5-2.2,0.4c-0.3-0.3-0.9-0.4-0.2-0.7c-2.2,0.3-3.3-0.4-4.9,0.3c-0.3-0.3,0.5-0.4,0.2-0.6c-0.2,0.1-0.7,0.2-0.9,0.1
				C17,1.2,17.5,1.1,17.9,1c-2.3,0-2.5,0.9-2.7,1.7c-1.1-0.4-1.7-0.3-2.5,0.2c-0.4-0.3-1.1-0.5,0.3-0.6c-0.8,0-4.8-0.4-4.9,0.3
				c-0.2-0.2-1.1,0-1.3,0c-2.3,0-2.6-0.1-4.9,0l0.7,0.1C2.5,2.9,2.3,3,2,3c0,0.7-0.2,1.3-0.1,2.5L1.8,5.4C1.6,6.4,1.6,7,1.6,7.4
				c0,0.2,0,0.4,0,0.5c0,0.1,0,0.2,0,0.3c0.1,0.3,0.1,0.7-0.2,2.3l0.5-0.2c1,0.3-0.6,2.8-0.2,4.7l0.3-0.7c0.4,1-1.4,2.8-1.5,3.8
				c-0.1,0.2-0.1-0.3-0.2-0.7c-0.6,2.6,0.6,0.3,0.8,2.3c-0.3,0.4-0.9-0.5-0.9,0.9c-0.3,0.7,1.1,3.9,0.5,5.7c0.3-0.4,0.5-0.8,0.7,0.1
				c0.1,1.4-1,3.8-0.2,5.1c-0.1,0.2-0.1,0.2-0.2,0.3c0.2,0.7,0.4,4.6,0.8,5c-0.3,0.5-0.5,1.2-0.6,2c1.3,0.1,3.6-0.1,5.1-0.3
				c0.3,0,0.6-0.1,0.9-0.1c0.2,0,0.5,0,0.7,0c0.4,0.1,0.6,0.2,0.6,0.5l3.3-0.1l-0.1,0.2c2.1,0.1,2.9-0.3,3.6-0.6
				c0.5,0.1,0.1,0.2,0.1,0.3c3.1,0.3,3.4,0.2,6-0.5l0.3,0.5c0.7-0.3,4.5,0.8,7.5,0.2c0,0.1-0.1,0.2-0.3,0.2c3.4-0.6,8.2,1.4,9.4-0.4
				l2.2-0.4c-2.9-0.1,0.4-0.8-0.8-1.1c1.1-0.1,3,0.5,1.6,0.6l-0.2-0.1c-0.5,0.9,3.6,0.3,3.5,1c5.7,0,11.3,0.5,16.7,0.5l-0.6-0.7
				l1.9,0c0.5,0.2,0.7,0.6-0.7,0.5c0.7,0.4,2.2-0.3,2.3-0.5c2.6,0.3-1,0.9-0.2,0.9l1.1-0.1l-0.2-0.1c0.9-0.3,1-0.6,2.6-0.6
				c1,0.1,0.5,0.5,0.9,0.5c0,0.1,0.1,0.1,0.6,0l2.4,0.1l-0.9-0.6c1-0.3,2.2,0,1.1-0.6c1.6,1,8.8,0.4,9.8,0.7
				c1.5-0.4,2.9-0.4,4.7-0.4c-0.4-0.1-0.7-0.8,0.8-0.7c-0.6,1.3,2.8,0.6,4.1,1.5c-1.1-0.6,4.4-0.2,2.6-1.1c1.3,0.1,0.1,0.5,1.1,0.8
				c3.1-0.5,6.7,0.3,10.5,0.2c0.1-0.2-0.6-0.4,0.2-0.7l2,0.9c0.7-0.1,0.7-1,2.1-0.4c-0.2-0.1-0.5-0.4,0-0.4
				c7.4,0.9,15.1-0.7,22.7,0.9c-1-0.3-0.3-0.4,0.4-0.4c-0.5-0.1,0-0.4-0.1-0.7l3.2,0.7c0.6-0.7,3.4,0,3.7-0.7l-1,0.1
				c1.3-0.7-1.9-1.7-1.7-2.6c-1.5,0.8-3.9-1.3-6.4,0c-0.5-0.2,0.5-0.3,0.2-0.5c-0.6,0.4-1.4,0.5-2.7,0.3l0.2-0.1
				c-3.9,0.1-5.6-0.3-9.9-0.6l0.3,0.5c-0.9-0.1-1.1-0.2-1.6-0.3c-1.1,0.7,2.6,0,1.7,0.8c-1.2-1-6.6,0-7.5-1.1c-1.4,0,0.4,0.5-1,0.5
				l-0.4-0.3l-0.4,0.4c-0.9-0.1-1.4-0.4-1.5-0.7c0.2,0,0.7-0.1,0.9-0.1c-1.2-0.3-3.5,0.1-3.9,0l1.4,0.2c-3.9,0.3-8.7-0.1-12.6,0.5
				l0.3,0.2c-2.9,0.4-2.3-0.2-5.5-0.1l0.1-0.1c-0.6,0.2-1.5,0.3-2.4,0.3c0.8-0.3-1.5-0.5-0.5-0.8c-3.2,0.4-1.6,0.3-3.6,1.2l-0.5-0.4
				c-0.7,0.3-0.8,0.5-2.4,0.6c1.3-0.3-1-0.6,0.4-1c-3.3-0.8-5,0.8-6.5-0.4c-1.5,1,2.9,0.6,2,0.8c0.7,0.3-1.3,0.8-2.3,0.7
				c-1.1,0-1.8-1.3-4.5-1.3c0.3,0,0.3-0.1,0.6-0.1c-1-0.3-2,0.4-3.2-0.1c-0.7,0.6-1.6,0-1.8,0.8l2.5-0.2c-1.4,0.2-2.7,1.1-5,0.7
				c0.2-0.2,0.9-0.4,1.3-0.5c-0.7-0.2-1.3,0.2-2-0.1c0.2-0.8,3-0.2,4.5-0.8c-0.7-0.3-2.8,0.6-2.1-0.3c-1.1,1.1-2.6-0.1-4.5,0.7
				l0.1-0.5C58,34.8,57.4,35,56.9,35l1-0.6c-1.5,0.5-2.8-0.5-4.3-0.2c3,0,0.7,0.6,1.9,0.9c-3.6,0.6-2.1-1.2-6.2-1
				c0.6-0.1,2.1,0.3,1.2,0.5c-0.8-0.1-1.8-0.3-2.3-0.5c-2.7,0.1,0.4,0.5-0.7,0.8c-0.9-0.6-1.3,0.2-2.5,0.4l0-0.5
				c-3.1-0.3-0.8,1-3.6,0.6l1.2-0.7l-1.4,0.2l0.3-0.5c-1.6,0.4-2.1,0.3-3.6,0.1c0.4,0.3-0.2,0.9-1.6,0.9c-0.9-0.3,0.5-0.5-1.4-0.4
				c0.4-0.3,0.9-0.7,1.8-0.2c0.1-0.2,0.4-0.3,0.5-0.5c-1-0.3-2.5-0.1-3.2-0.1c0.3,0,0.6,0,0.8,0.1l-2.8,0.7
				c-0.4-0.2-0.1-0.3,0.3-0.5c-0.6,0.1-1,0.3-1.8,0.3c0.2-0.4,0.2-0.8,1.3-1L29,34.4c-0.2-0.2-1.4-0.5-1-0.6
				c-1.5-0.2-3.6,0.8-5.6,0.5c-0.1,0.1-0.3,0.1-0.7,0.2c-1.8-0.1-3.5-0.6-5.7,0l-1.2-0.7c-1.7,0.2,1.7,0.9-1.2,1.2
				c-2,0.2-0.8-0.6-1.5-0.8c-1,0.4-2.8,1.1-4.6,0.5C8.1,34.4,8.6,34.5,9.1,34.4z M5,22.1c0.1,0.4,0.4,1.2,0.1,1.5
				C4.6,23.2,4.8,22.8,5,22.1z M16.7,4.9C16.4,5,15.9,5,15.4,4.8C15.8,4.7,16.2,4.8,16.7,4.9z M106.2,1.5
				C106.2,1.5,106.2,1.5,106.2,1.5C105.3,1.4,105.6,1.4,106.2,1.5z M108.1,1.7c0.2-0.1,0.2-0.1,0.1-0.2c-0.1,0.1-0.6,0.1-1,0.1
				C107.3,1.8,107.6,1.8,108.1,1.7z M68.2,38.9l-0.4-0.1C68.7,38.6,68.5,38.7,68.2,38.9z"/>
			<path d="M13,5.5c-0.1-0.1-0.1-0.2-0.2-0.3C12.7,5.4,12.7,5.5,13,5.5z"/>
			<path d="M22.3,34.2L22.3,34.2c0.1,0,0.1-0.1,0.1-0.1L22.3,34.2z"/>
			<path d="M78.7,5.8c-0.4-0.1-0.6-0.2-0.8-0.2C78,5.7,78.1,5.8,78.7,5.8z"/>
			<path d="M118.2,0.9L117,1c0.6,0,0.8,0.1,1.1,0.2C118.1,1.1,117.8,0.9,118.2,0.9z"/>
			<path d="M128.8,3.9c0.2-0.1,0.4,0,0.6-0.1l0-0.2C128.5,3.6,128,3.8,128.8,3.9z"/>
			<path d="M119.3,2.5c0.1,0.4,0.9,0.3,1.7,0.2c-0.1,0-0.1,0-0.2,0C121.1,2.1,120.2,2.3,119.3,2.5z"/>
			<path d="M121.2,2.7c0.3,0,0.5,0,0.8,0C122.1,2.5,121.7,2.6,121.2,2.7z"/>
			<path d="M110.6,1.5c0.4,0.1,0.3-0.5,0.5-0.4C111.5,0.6,108.3,1.7,110.6,1.5z"/>
			<polygon points="120,3.9 119.7,3.4 119.2,3.8 			"/>
			<path d="M113.3,3.5l1.4,0.1c0-0.1,0.2-0.1,0.4-0.2C114.2,3.4,113.3,3.3,113.3,3.5z"/>
			<path d="M115,3.5c0.4,0,0.9,0,1.1-0.1C115.9,3.4,115.4,3.4,115,3.5z"/>
			<polygon points="118.2,4 117.8,3.9 116.8,3.9 			"/>
			<path d="M98.7,3.4l-1.5,0.1C97,3.7,97.4,3.8,98,3.7C98.3,3.6,98.9,3.6,98.7,3.4z"/>
			<path d="M103.2,4.8c-0.4-0.1-0.4-0.2-0.7-0.4l0,0.6L103.2,4.8z"/>
			<path d="M98.8,4.9c-0.1,0.2-2.2,0.5-0.3,0.5C98.7,5.2,100.2,5.1,98.8,4.9z"/>
			<polygon points="76.4,4.1 76.8,4.1 76.8,3.1 			"/>
			<path d="M56.7,6.6c1.8,0.2,0.4-0.6,2-0.3C59.1,6,57.4,6,57.8,5.8C56.8,6,56.2,5.9,56.7,6.6z"/>
			<path d="M57.8,5.8c0.2,0,0.4-0.1,0.5-0.2C58.1,5.7,57.9,5.7,57.8,5.8z"/>
			<polygon points="137.4,39.4 138.5,39.6 137.8,39.3 			"/>
			<path d="M139.5,38.6l0.3,0.6l0.7-0.6C140.2,38.7,139.7,38.8,139.5,38.6z"/>
			<path d="M6.3,19l-0.2-0.1c-0.2,0.2-0.2,0.4-0.2,1L6.3,19z"/>
			<path d="M5.8,33.4L5.8,33.4c-0.2,0-0.4,0.1-0.6,0.3C5.4,33.5,5.6,33.4,5.8,33.4z"/>
			<path d="M13.1,33.2c-0.5,0-1.1,0.1-1.7,0.1C12.6,33.2,13.2,33.9,13.1,33.2z"/>
		</g>
	</g>
</g>
</svg>
