<?xml version="1.0" encoding="UTF-8"?><svg xmlns="http://www.w3.org/2000/svg" viewBox="0 0 61.51 5.79"><defs><style>.d{fill:#e52521;}</style></defs><g id="a"/><g id="b"><g id="c"><g><path class="d" d="M61.44,1.07c.09,.03,.06-.29,.07-.34-.15,.07-.07,.42-.07,.34Z"/><polygon class="d" points="59.94 1.78 59.96 1.65 59.74 1.97 59.94 1.78"/><path class="d" d="M58.54,1.78c.13,.54,.51-.09,.76,.1l.04,.12,.11-.43c-.3,.07-.7,.35-.91,.2Z"/><path class="d" d="M57.79,.62c.05,.21-.16,.18,.17,.07-.02-.02-.02-.04-.03-.05-.03,0-.07,0-.14-.01Z"/><path class="d" d="M57.93,.63c.15-.02-.1-.18,0,0h0Z"/><path class="d" d="M57.25,.75l.19-.19c-.04-.12-.21-.15-.15-.24-.2,.1-.16,.22-.05,.43Z"/><path class="d" d="M57.06,1.14l.1-.08c-.02-.05-.04-.07-.1,.08Z"/><path class="d" d="M57.38,.9l-.21,.17c.03,.09,.03,.26,.1-.06-.02,.16,.02,0,.12-.11Z"/><path class="d" d="M57.5,.98c.11,.12,.25,.19,.05,.38,.37-.07,.32-.45-.05-.38Z"/><path class="d" d="M58.46,2.33l.15,.16,.13-.18c-.06,.09-.28-.15-.27,.02Z"/><path class="d" d="M56.04,.47c-.01,.11,.07,.3,.08,.45l.14-.13c-.07-.08-.21-.15-.22-.32Z"/><path class="d" d="M56.12,.92l-.21,.2c.19,.02,.23-.07,.21-.2Z"/><polygon class="d" points="57.03 1.73 57.38 1.32 56.96 1.74 57.03 1.73"/><polygon class="d" points="55.22 .46 55.34 .19 55.12 .59 55.22 .46"/><path class="d" d="M54.67,.5c.09-.22-.12-.37-.03-.5-.15,.04-.27,.23-.39,.4,.12-.09,.25-.07,.42,.11Z"/><path class="d" d="M54.07,.64c.06-.05,.12-.15,.19-.25-.06,.05-.13,.12-.19,.25Z"/><path class="d" d="M55.54,1.06c-.02-.07-.05-.25-.17-.33l.08,.32s.06,0,.08,0Z"/><path class="d" d="M55.45,1.07h0c-.09-.02-.16-.02-.18-.03,.02,0,.08,.01,.19,.03Z"/><path class="d" d="M55.56,1.06h-.02s.01,.04,.02,0Z"/><path class="d" d="M56.47,1.44c-.13,.18-.39,.37-.13,.64,.09-.22-.06-.38,.13-.64Z"/><path class="d" d="M55.66,1.46l.23,.07c0-.08-.05-.21,.02-.3l-.25,.22Z"/><polygon class="d" points="55.55 1.56 55.66 1.46 55.58 1.44 55.55 1.56"/><path class="d" d="M54.46,.94c-.1,.14-.21,.15-.33,.17,.13,.06,.27,.1,.39,.1,.02-.1,.07-.28-.07-.27Z"/><path class="d" d="M54.94,1.03s-.02,.01-.02,.02c.01,.03,.02,.04,.02-.02Z"/><path class="d" d="M52.93,1.11s.01,.04,.02,.06c0-.02,0-.04,0-.06h-.02Z"/><path class="d" d="M54.54,1.27c.1,.06,.16-.02,.21-.12-.07,.03-.15,.05-.23,.06,0,.05,0,.08,.02,.06Z"/><path class="d" d="M53.73,.79c.05,.07,.11,.12,.17,.18-.05-.1-.15-.26-.17-.18Z"/><path class="d" d="M54.89,.96s0-.01,.01-.01c-.03-.07-.03-.04-.01,.01Z"/><path class="d" d="M54.89,.96c-.05,.05-.09,.13-.13,.2,.06-.03,.12-.06,.16-.11-.01-.02-.02-.06-.03-.09Z"/><path class="d" d="M52.57,3.17c.02-.3,.28-.57,.5-.25,.22-.22,.08-1.2-.12-1.75,0,.13,0,.25-.23,.42,.08,.16,.5,.38,.31,.65-.3,.15-.24-.11-.39-.26,.12,.37-.38,.54-.32,1.08l.26-.19c0,.08-.09,.22-.02,.3Z"/><path class="d" d="M53.38,1.2l.09-.04c-.11-.05-.18-.17-.32-.4-.15,.14-.19,.26-.2,.35l.46,.04-.03,.04Z"/><path class="d" d="M53.89,1.16c-.07,.32-.3,.46-.16,.81,.27-.02,.19-.27,.35-.41-.44,.08,.13-.18-.19-.36,.09-.05,.16-.07,.24-.09-.08-.04-.16-.09-.23-.15v.02h.01s.03,.07,0,.05c0,0,0,0,0,0,0,.05-.01,.08-.02,.12-.13-.07-.02-.08,.02-.12,0-.02,0-.03,0-.05h0l-.44,.17c.09,.04,.21,.04,.42,0Z"/><path class="d" d="M56.1,2.78s-.01-.05-.01-.08c-.03,.04-.04,.07,.01,.08Z"/><path class="d" d="M55.92,2.59s.06-.17,.16-.14c.09,.1,0,.15,0,.26,.06-.09,.22-.23,.02-.39l-.03,.04c-.18-.11-.41-.51-.37-.56,.05,.29,.1,.5,.22,.78Z"/><path class="d" d="M54.89,1.96l-.37,.16,.19,.28v-.17c.2,.07,.15-.14,.18-.27Z"/><polygon class="d" points="52.89 .95 52.94 .61 52.72 1.09 52.89 .95"/><polygon class="d" points="52.41 .99 52.43 .7 52.3 .87 52.41 .99"/><path class="d" d="M25.52,4.68l-.11,.08c.05-.03,.08-.05,.11-.08Z"/><path class="d" d="M26.3,4.7l.02-.15c-.04,.08-.05,.14-.02,.15Z"/><path class="d" d="M40.71,1.03c-.16-.28-.33-.71-.31-.37l.05,.33c.11-.06,.19-.02,.27,.05Z"/><path class="d" d="M32.69,2.97s.03,.07,.05,.1c.04-.11,.07-.21,.11-.31-.05,.07-.1,.14-.15,.21Z"/><path class="d" d="M32.58,4.32l-.21-.21c.05,.07,.11,.14,.21,.21Z"/><path class="d" d="M21.26,5.02l-.13,.33c.2,0,.11-.17,.13-.33Z"/><path class="d" d="M47.53,1.11c-.14-.13-.24-.18-.34-.2,.16,.19,.29,.47,.34,.2Z"/><path class="d" d="M25.83,1.22c-.07,.06-.09,.13-.09,.2,.07-.06,.11-.12,.09-.2Z"/><path class="d" d="M46.8,.92s.05,.05,.07,.08c.1-.05,.2-.1,.32-.08-.12-.14-.26-.22-.39,0Z"/><path class="d" d="M5.81,4.75s-.02-.02-.03-.04c0,.04,.01,.05,.03,.04Z"/><path class="d" d="M1.31,1.47s.12-.02,.18-.02c-.03-.02-.09-.02-.18,.02Z"/><path class="d" d="M50.49,.85c.1-.02,.02-.04,0,0h0Z"/><path class="d" d="M50.98,2.14s-.04,.08-.04,.16c0-.08,.02-.13,.04-.16Z"/><path class="d" d="M45.79,2.94h0c.03,.06,.02,.05,0,0Z"/><path class="d" d="M50.64,1s-.08-.07-.13-.1c.02,.03,.06,.06,.13,.1Z"/><path class="d" d="M50.62,.84s.06,.02,.09,.03c.01-.05,0-.09-.09-.03Z"/><path class="d" d="M50.35,.87c.06,0,.11,.01,.16,.03-.02-.02-.03-.04-.02-.05-.03,0-.07,.01-.14,.02Z"/><path class="d" d="M14.09,3.88s-.01-.02-.02-.03c-.1,.14-.06,.11,.02,.03Z"/><path class="d" d="M38.08,4.4s0-.01,.01-.02h-.01v.02Z"/><path class="d" d="M37.71,4.65c.15-.4,.24-.36,.36-.27l-.12-.94-.24,1.21Z"/><path class="d" d="M23.65,4.77l.25,.29c-.31,.48-.53,.32-.29,.73,.04-1.02,.99-.1,1.03-1.12l.17,.21s-.06,.05-.1,.04c.33,.49,.24-.74,.66-.59,.15,.08,.25,.23,.15,.35l.33-.25c.1,.02,.07,.2-.02,.18l.5-.08v.03c.07-.16,.23-.41,.31-.51,.13,.15-.06,.11-.03,.24l.28-.25c.11,.26-.12,.52-.31,.48,.26,1.02,.23-.26,.79,.34l-.26,.13c.17,.58,.37,.37,.67,.73-.07-.19-.59-.91-.29-1.16,.08,.08,.2,.11,.36-.09,0,.36,.16,.27,.36,.25v.48c.2-.14,.18-.38,.31-.6,.24,.05,.29,.42,.34,.73,.38,.08-.26-.6,.19-.69,.32,.18,.54-.01,.92-.3,.22,.17-.04,.29,.04,.43l.2-.38s.03,.13,.02,.19c.17-.15,.01-.48,.27-.61,.07-.53,.53,.77,.86,.17,.08,.14-.04,.29-.01,.48,.44-.39,.38-.29,.74-.82l.31,.31c-.23-.36,.06-.79,.32-1.14-.08-.17-.15-.33-.2-.4l.41-.26c.05,.08,0,.24-.06,.44,.03-.04,.05-.08,.07-.11,.15,.18,.07,.45-.03,.72-.05-.09-.1-.2-.15-.3-.1,.29-.19,.61-.17,.9,.03-.06,.08-.1,.13-.13-.03,.08-.04,.15-.03,.2,.01,.05,.06-.06,.12-.18l.09,.53,.02-.21,.53,.33c.38-.54,.71-1.33,1.31-1.55-.15,.39-.03,.64-.04,1.11-.16-.49-.47,.21-.78,.11,.16,.05,.13,.27,.09,.35l.56-.45c-.01,.38,.12,.28,.26,.44-.11-.75,.42-.5,.64-.73,.01,.25-.04,.51-.32,.45,.31,.57,.39-.88,.69-.4-.07,0-.1-.03-.13,.1,.16-.22,.54-.05,.45,.17h-.07c.45,.09,1.37,.01,1.43-.63,0,.08-.06,.77-.09,.9l.8-2.15c-.07,.55,.2,1.85-.17,2.16,.11,.08,.24,.17,.46-.02-.07-.08-.18-.79-.08-.84,.27,.61,.19,.33,.53,.85-.11-.12,.01-.98,.18-.95-.03,.13,.01,.85-.05,.94l.43-.84c-.11,.15-.02,.71,.08,.95-.04-.17,.37,.02,.49-.07l-.18-.2c.49,.13,.48-1.19,.96-1.14-.06,.17-.14,1.07,.1,1.18,.11-.43,.5-2.08,.92-2.41l.08,.25,.33-.28c-.2,.65-.77,2.02-1.09,2.55,.18,.2,.05,.29,.32,.27,.1,.23-.15,.35-.23,.36l.63,.15c-.03-.5,.48-.51,.46-.93l-.69,.52c-.03-.5,.4-1.43,.85-1.34,.11,.2-.09,.9-.08,1.07,.06-.17,.43-.33,.47-.21l-.19,.27c.25,.19,.41-.67,.71-.19,.1,.03,.31,.65,.33,.35-.17-.58-.2-2.36-.09-2.79,.04,.04,.54,.55,.66,.83,.17,.45-.26,1.08-.11,1.46,0-.14,.1-.31,.14-.36,.11,.12-.05,.43,.19,.36,.04-.51,.48,.04,.11-.43,.23-.15,.25,.11,.52,.08-.09-.33,.24-1.12,.48-1.27-.01,.13,.04,.3,.06,.38,.47,.05,.73,.28,1.17,.28,.04,.12,.25,.27,.16,.49,.06-.09,.12-.26,.26-.28,.26,.44-.3,.07-.1,.6,.02-.3,.35-.41,.55-.6-.06-.46-.45-.09-.64,.1,0-.63,.34-1.3,.8-1.59,.37-.16,.16,.41,.22,.32,.69,.11,.59-1.11,1.16-.65,.23,.4,.01,.8,.06,1.09-.3,.15-.46-.26-.66-.24l.25,.19c-.1,.13-.29,.24-.4,.12,.19,.36,1.17,.07,1.7,.4,.09-.14,.26-.28,.18-.44l-.17,.06c-.15-.33,.32-.45,.1-.6,.23-.23,.48-.59,.8-.4l.06,.46c0-.13-.21-.27-.3-.13,.13-.2,.49,.62,.63,.02l-.22-.32c.23-.23,.51-.72,.79-.57-.13-.45-.06,.05-.27-.48,.17,.66-.72-.03-.44,.67-.21-.62-.36-.26-.62-.79,0,.15,.1,.29-.14,.22-.01,.04-.04,.1-.05,.13h0s-.01,.03,0,.01c.06,.07,.1,.15,.12,.23-.12,.35-.49,.34-.62,.52-.14-.07,.06-.17-.02-.34l-.19,.27c-.02-.34-.37-.56-.04-.76h-.3c-.18-.2-.42-.28-.56-.14-.14-.07-.35,.37-.23,.11l-.47,.21v-.08c-.46-.04-.95,.56-1.48-.05-.16,.08-.32,.19-.57,.09l-.05-.29c-.2,.1-.6-.29-.68,.01-.21-.78-.97-.17-1.32-.31v.38c-.25-.02-.49,.09-.78,.24l.02,.34c-.26,.28-.66-.24-1.07-.2,.03-.13,.13-.09,.2-.02-.49-.76-1.03,.55-1.47,0-.11,.12-.19,.08-.27,0,.01,0,.02,0,.03-.02-.01,0-.03,0-.05,0-.05-.06-.1-.13-.15-.18,.05,.08,.09,.15,.13,.18-.08,0-.21,.05-.34,.13l-.05-.36s-.02,0-.03,.01c-.12-.13-.1,.17-.03,.44-.06,.06-.12,.13-.17,.22-.1-.58-.33,.2-.47-.43-.09,.3-.63,.23-.7,.87,0-.08-.04-.12,.03-.13-.14-.07-.28-.15-.41,.03l-.06-.46-.31,.62c-.19-.28-.26-.44-.08-.8-.45,.54-.36,.2-.74,.74l.02-.3c-.14,.01-.35,.41-.44,.16-.3-.56-1.51-.08-2.29-.6,.15,.87-.36-.39-.39,.29-.05-.21-.15-.32-.03-.5-.4,.2-.6-.33-.87,.24-.05-.21,.09-.3,.04-.43-.03,.04-.13,.18-.17,.06-.04-.12,.06-.17,.12-.26-.41,.03-.45,.67-.48,1.27-.21-.28-.31-.24-.46,.15-.07-.2-.19-.4,.06-.47-.14-.03-.87-.29-.88,.19-.04-.12-.2-.04-.24,.02-.32-.03-.35-.07-.66-.03l.09,.08c-.12,.58-.26,.13-.51,.2v-.06c-.57-.42-.24,.2-.82-.28l.03,.36c-.05,.77-.51-.46-.84-.16l.12,.21c-.18,.26-.51-1.05-.69-1.15-.04-.07,.06-.11,.12-.16-.48-.46-.06,.47-.42,.58-.07-.25,.08-.65-.15-.69-.12-.21-.69,.83-1.02,.34,.07,.2,.14,.39-.02,.54-.25,.07-.68-.74-.91-.12-.03-.05-.04-.1-.05-.15-.19,.16-.63,.26-.75,.6-.18-1.24-1.2,.6-1.2-.54l-.59,.06,.02-.12c-.38-.08-.51,.2-.65,.47-.09-.08-.02-.18-.02-.24-.56-.23-.61-.18-1.08,.39l-.05-.37c-.13,.22-.8-.58-1.35-.15,0-.04,.02-.11,.06-.17-.61,.44-1.47-1.03-1.69,.32l-.4,.33c.52,.11-.08,.59,.14,.81-.21,.08-.53-.41-.28-.48l.04,.07c.09-.71-.65-.25-.64-.73-1.03,.03-2.03-.36-3-.39l.11,.55-.34-.03c-.09-.13-.12-.43,.12-.41-.13-.31-.4,.26-.41,.38-.47-.22,.18-.64,.04-.65l-.2,.04,.04,.06c-.16,.22-.17,.46-.46,.43-.18-.11-.09-.34-.17-.36,0-.04-.02-.06-.11-.02l-.42-.05,.17,.43c-.19,.21-.4-.02-.2,.47-.29-.76-1.58-.27-1.76-.51-.26,.32-.52,.31-.84,.27,.08,.09,.13,.58-.15,.52,.1-1-.51-.44-.73-1.16,.2,.48-.79,.12-.47,.8-.23-.08-.01-.38-.19-.61-.55,.39-1.22-.25-1.9-.12-.01,.13,.1,.33-.04,.53l-.36-.66c-.13,.06-.12,.76-.37,.3,.03,.11,.09,.28,0,.32-1.34-.64-2.73,.53-4.08-.68,.18,.26,.06,.28-.08,.29,.09,.06,0,.33,.02,.5l-.57-.5c-.1,.5-.61,.03-.67,.51l.18-.09c-.24,.56,.33,1.24,.3,1.96,.27-.64,.71,.94,1.14,.03,.1,.15-.08,.23-.03,.4,.11-.31,.25-.37,.49-.23l-.03,.08c.7-.08,1,.23,1.79,.43l-.06-.36c.17,.05,.2,.16,.28,.25,.19-.54-.47-.03-.3-.62,.22,.72,1.19,.01,1.34,.83,.26,0-.08-.41,.18-.41l.07,.22,.07-.29c.17,.05,.26,.33,.26,.51-.04-.02-.12,.05-.16,.07,.22,.26,.62-.09,.7,0l-.25-.14c.71-.21,1.58,.08,2.26-.37l-.05-.17c.52-.31,.42,.18,.99,.04l-.02,.04c.11-.17,.27-.25,.43-.23-.15,.2,.27,.38,.08,.6,.57-.33,.28-.26,.66-.88l.09,.28c.13-.25,.14-.38,.43-.46-.24,.24,.18,.42-.08,.74,.6,.61,.89-.61,1.17,.28,.28-.77-.52-.43-.37-.59-.13-.25,.23-.58,.42-.5,.19,.02,.33,.98,.81,.97-.05,0-.05,.05-.1,.05,.18,.2,.35-.27,.58,.05,.12-.47,.29,.03,.32-.57l-.44,.14c.25-.16,.49-.85,.9-.51-.03,.12-.16,.28-.24,.37,.12,.18,.23-.12,.36,.06-.04,.59-.54,.13-.81,.58,.13,.25,.51-.43,.37,.21,.19-.82,.48,.1,.8-.52l-.02,.36c.05-.06,.16-.22,.25-.22l-.17,.46c.27-.39,.51,.34,.77,.13-.53,.01-.12-.43-.34-.69,.66-.48,.38,.93,1.11,.76-.1,.05-.37-.21-.22-.38,.14,.07,.33,.21,.41,.4,.49-.07-.07-.37,.13-.58,.17,.43,.24-.18,.45-.32v.36c.56,.23,.15-.75,.65-.47l-.21,.5,.26-.13-.05,.41c.28-.31,.37-.23,.65-.11-.06-.25,.04-.66,.28-.67,.17,.21-.09,.34,.25,.29-.08,.23-.17,.51-.32,.18-.02,.12-.08,.23-.09,.34,.18,.25,.45,.06,.58,.05-.05-.01-.11-.03-.14-.08l.51-.5c.08,.14,.02,.25-.05,.35,.1-.04,.17-.21,.32-.24-.04,.29-.03,.6-.24,.74l.48-.33c.03,.13,.25,.35,.18,.46,.27,.17,.66-.57,1.01-.34,.02-.06,.06-.11,.13-.15,.33,.07,.63,.43,1.02,.02l.22,.53c.31-.12-.3-.66,.21-.86,.36-.17,.14,.45,.26,.6,.18-.27,.5-.81,.83-.38-.11,.1-.2,.02-.3,.06Zm3.81-.23c-.07,.08-.22,.31-.27,.1,.08-.41,.15-.22,.27-.1Zm5.79-.87c-.05,.12-.14,.06-.24-.08,.07-.03,.15-.02,.24,.08ZM49.39,1.14v.02c-.17-.14-.11-.09,0-.02Zm.34,.16c.03-.05,.03-.1,.02-.15-.02,.09-.1,.1-.19,.07,.02,.09,.07,.16,.17,.08Zm-36.72,.14l.07,.09c-.15,.1-.11,0-.07-.09Z"/><path class="d" d="M32.6,4.16c-.02-.06-.03-.13-.03-.2-.03,.06-.03,.13,.03,.2Z"/><path class="d" d="M21.28,4.96h-.01s0,.04-.01,.06l.02-.06Z"/><path class="d" d="M44.43,4.37c-.07-.05-.11-.12-.14-.19,0,.09,.03,.16,.14,.19Z"/><path class="d" d="M51.54,.69l-.22,.09c.11-.02,.14,.06,.2,.12,0-.08-.05-.21,.02-.21Z"/><path class="d" d="M53.44,2.93s.07,0,.1-.05v-.17c-.15,.01-.24,.15-.1,.22Z"/><path class="d" d="M51.74,1.89c.02,.3,.15,.2,.31,.14,0,0-.02,0-.03,0,.05-.43-.12-.28-.28-.14Z"/><path class="d" d="M52.09,2.02s.1-.02,.14,0c.02-.17-.06-.04-.14,0Z"/><path class="d" d="M50.16,1.1c.07,.08,.05-.39,.09-.27,.08-.39-.49,.47-.09,.27Z"/><polygon class="d" points="51.87 2.89 51.81 2.52 51.72 2.82 51.87 2.89"/><path class="d" d="M50.65,2.62l.25,.1c0-.06,.03-.1,.07-.13-.15-.01-.32-.09-.31,.02Z"/><path class="d" d="M50.97,2.59c.08,0,.15,0,.2-.06-.04,0-.13,.02-.2,.06Z"/><polygon class="d" points="51.53 3 51.46 2.93 51.29 2.9 51.53 3"/><path class="d" d="M48.02,2.54l-.27,.11c-.03,.13,.05,.21,.15,.16,.06-.09,.16-.14,.12-.26Z"/><path class="d" d="M48.83,3.57c-.07-.08-.08-.16-.12-.29v.47l.12-.18Z"/><path class="d" d="M48.05,3.68c-.03,.13-.39,.37-.05,.34,.03-.13,.3-.24,.05-.34Z"/><polygon class="d" points="44.02 3.09 44.09 3.09 44.08 2.32 44.02 3.09"/><path class="d" d="M40.46,4.92c.32,.18,.08-.47,.36-.24,.07-.18-.23-.19-.16-.34-.19,.19-.29,.08-.2,.59Z"/><path class="d" d="M40.67,4.33s.06-.07,.1-.12c-.06,.05-.08,.08-.1,.12Z"/><polygon class="d" points=".56 1.06 .36 .9 .49 1.15 .56 1.06"/><path class="d" d="M.17,1.62l-.05-.49-.12,.44s.14-.06,.17,.05Z"/><path class="d" d="M28.03,5.52l.02-.12c-.03-.13-.08-.14-.17-.16l.16,.27Z"/><polygon class="d" points="25.26 5.15 25.31 5.16 25.22 4.72 25.26 5.15"/><path class="d" d="M22.94,5.71c.09,.02,.21-.08,.3-.06-.21,.08-.33-.49-.3,.06Z"/></g></g></g></svg>